<svg width="330" height="292" viewBox="0 0 330 292" fill="none" xmlns="http://www.w3.org/2000/svg">
<mask id="mask0" mask-type="alpha" maskUnits="userSpaceOnUse" x="0" y="0" width="330" height="288">
<path d="M0 0H329.766V287.92H0V0Z" fill="white"/>
</mask>
<g mask="url(#mask0)">
<path fill-rule="evenodd" clip-rule="evenodd" d="M83.778 282.56C43.3834 268.976 8.34481 235.218 1.16948 193.304C-6.00585 151.39 20.4984 104.145 62.1435 95.059C81.8349 90.7606 103.09 94.5999 121.902 87.3848C157.383 73.7773 169.441 27.7406 202.222 8.53987C233.804 -9.95709 277.104 3.38402 300.634 31.3807C324.161 59.3773 331.026 98.0083 329.585 134.511C327.466 188.139 304.618 245.975 255.847 268.651C214.749 287.759 127.857 293.175 83.778 282.56Z" fill="#59999D"/>
</g>
<path fill-rule="evenodd" clip-rule="evenodd" d="M35 273.312C43.9002 288.049 62.2374 293.582 78.9494 293.23C95.6592 292.878 111.999 287.898 128.685 286.888C155.13 285.292 181.046 293.669 207.041 298.976C233.038 304.281 261.451 306.174 284.635 292.824C290.311 289.558 295.788 285.094 298.086 278.775C300.384 272.458 298.307 264.072 292.326 261.461C290.008 260.451 287.429 260.388 284.916 260.339C229.223 259.263 173.53 258.188 117.837 257.11C89.4877 256.563 58.2363 257.065 36.9692 276.604" fill="#59999D"/>
<path fill-rule="evenodd" clip-rule="evenodd" d="M274.904 107.205C271.479 110.477 270.175 115.57 273.443 119.501C276.52 123.2 282.473 123.984 286.315 121.036C295.593 113.916 285.922 100.779 275.912 103.498C274.058 104.001 274.52 106.628 276.352 106.733C279.278 106.897 282.412 107.01 284.751 109.05C287.261 111.24 287.318 114.945 285.257 117.465C279.799 124.136 270.323 114.312 276.053 108.348C276.777 107.595 275.661 106.483 274.904 107.205Z" fill="#3A3A3A" fill-opacity="0.5"/>
<path fill-rule="evenodd" clip-rule="evenodd" d="M51.6685 74.8439C48.2233 73.2959 43.9844 73.6536 40.851 75.7546C37.7176 77.8555 35.7966 81.6302 35.9492 85.3876C36.0692 88.3233 37.2466 91.6644 35.3692 93.9344C33.917 95.6863 31.3266 95.8511 29.2464 96.7877C25.2909 98.5656 23.3219 103.767 25.1209 107.696C26.0934 109.823 28.0231 111.78 27.6546 114.087C27.4169 115.581 26.2242 116.763 24.905 117.515C23.5836 118.265 22.1052 118.695 20.738 119.358C15.7578 121.782 12.7334 127.413 12.8751 132.924C13.019 138.436 16.0696 143.665 20.4437 147.054C24.8199 150.443 30.3977 152.088 35.9383 152.294C41.4921 152.5 47.301 151.206 51.5377 147.633C54.719 144.949 56.7949 141.189 58.3256 137.332C61.2387 129.997 62.4184 121.99 61.7468 114.135C61.0469 105.983 58.3975 98.0821 57.8175 89.9212C57.6235 87.1872 57.6627 84.4163 57.05 81.743C56.4373 79.0696 55.0614 76.4267 52.7042 75.0065" fill="#3A3A3A"/>
<path fill-rule="evenodd" clip-rule="evenodd" d="M50.4057 75.9002C53.5609 69.3784 59.8342 64.4329 66.9427 62.8653C71.308 61.9027 76.0986 62.2279 79.9341 64.5131C83.7718 66.7984 86.4233 71.2561 85.8389 75.666C85.477 78.3914 83.9899 80.8241 83.0457 83.4085C82.1015 85.9951 81.7919 89.1476 83.5472 91.2723C85.1215 93.1803 87.821 93.6508 89.971 94.8845C93.0411 96.6493 94.9709 100.209 94.7681 103.73C94.5653 107.252 92.2365 110.569 88.9832 111.972C92.2147 112.345 95.2522 114.142 97.1209 116.787C98.9917 119.434 99.6633 122.884 98.922 126.034C97.8579 130.548 94.1685 134.002 90.1999 136.441C84.6876 139.83 78.2944 141.794 71.8183 142.085C64.9453 142.395 57.3332 140.372 53.5936 134.629C51.1405 130.858 50.7655 126.153 50.4908 121.67C49.66 108.136 49.0909 94.5874 48.5218 81.0409C48.4302 78.8619 48.3408 76.6482 48.8576 74.5278" fill="#3A3A3A"/>
<path fill-rule="evenodd" clip-rule="evenodd" d="M73.5291 137.045L135.148 160.015L129.265 135.272L145.289 131.222C145.289 131.222 162.526 179.591 150.555 180.885C129.599 183.153 97.8897 174.901 97.8897 174.901L73.5291 137.045Z" fill="#3A3A3A" fill-opacity="0.5"/>
<path fill-rule="evenodd" clip-rule="evenodd" d="M68.1423 242.617C68.1423 242.617 142.583 161.826 192.837 179.464C243.091 197.104 264.309 279.391 264.309 279.391L224.282 278.745C224.282 278.745 192.671 216.595 177.246 219.002C161.819 221.413 114.179 280.568 114.179 280.568L68.1423 242.617Z" fill="#3A3A3A" fill-opacity="0.5"/>
<path fill-rule="evenodd" clip-rule="evenodd" d="M91.6936 193.569L94.7834 240.972C78.737 260.589 22.8747 235.226 22.8747 235.226L22.2227 215.407L20.9253 168.202C22.2118 149.404 39.7714 140.179 39.7714 140.179C47.0303 136.58 58.1007 134.537 68.0744 135.03C78.4863 135.539 81.0593 140.498 85.3483 149.944C88.8131 157.576 98.2177 170.01 91.6936 193.569Z" fill="#3A3A3A" fill-opacity="0.5"/>
<path fill-rule="evenodd" clip-rule="evenodd" d="M33.3152 244.156C33.3152 244.156 24.772 278.734 50.8115 284.184C76.8511 289.633 172.623 276.884 197.568 279.065C222.513 281.242 293.454 285.36 293.454 285.36L298.648 244.297C298.648 244.297 188.251 239.035 175.774 242.12C163.297 245.201 33.3152 244.156 33.3152 244.156Z" fill="#3A3A3A" fill-opacity="0.5"/>
<path fill-rule="evenodd" clip-rule="evenodd" d="M45.8 183.704C45.8 183.704 37.9916 229.458 49.0032 228.331C85.2235 224.628 106.791 224.129 106.791 224.129L112.794 236.522C112.933 238.634 44.2017 258.197 33.1574 251.73C25.3599 247.163 12.9376 234.861 18.5764 198.098L19.9087 185.775L45.8 183.704Z" fill="#3A3A3A"/>
<path fill-rule="evenodd" clip-rule="evenodd" d="M78.4819 249.391L78.4077 246.323L123.869 239.94L135.936 197.982L186.297 196.768L172.708 242.181L78.4819 249.391Z" fill="#3A3A3A" fill-opacity="0.5"/>
<path fill-rule="evenodd" clip-rule="evenodd" d="M160.201 217.867C160.251 219.914 158.622 221.616 156.564 221.666C154.505 221.714 152.796 220.094 152.746 218.047C152.695 216.003 154.324 214.301 156.383 214.251C158.441 214.203 160.151 215.821 160.201 217.867Z" fill="#3A3A3A"/>
<path fill-rule="evenodd" clip-rule="evenodd" d="M161.694 217.832C161.763 220.698 159.482 223.079 156.6 223.148C153.717 223.217 151.323 220.95 151.253 218.083C151.183 215.217 153.464 212.836 156.347 212.769C159.23 212.7 161.624 214.968 161.694 217.832Z" fill="#3A3A3A"/>
<path fill-rule="evenodd" clip-rule="evenodd" d="M25.8771 153.358C25.8771 153.358 17.4276 161.423 15.5393 191.946L48.2382 188.349C48.2382 188.349 53.6872 136.364 25.8771 153.358Z" fill="#3A3A3A"/>
<path fill-rule="evenodd" clip-rule="evenodd" d="M265.906 61.5718C265.906 61.5718 277.498 87.4551 280.729 86.0978C283.963 84.7428 313.899 66.2745 313.899 66.2745C313.899 66.2745 301.629 43.1014 299.076 41.7485C296.523 40.3978 265.906 61.5718 265.906 61.5718Z" fill="#3A3A3A" fill-opacity="0.5"/>
<path fill-rule="evenodd" clip-rule="evenodd" d="M299.076 41.7489C299.222 41.8031 298.369 44.4591 296.871 48.7043C295.375 52.9517 293.232 58.7905 290.803 65.2147C290.742 65.373 290.681 65.5312 290.626 65.6787L290.463 66.1101L290.003 66.0364C283.298 64.9502 277.262 63.9095 272.907 63.1029C268.553 62.2964 265.88 61.724 265.906 61.5722C265.93 61.4204 268.647 61.7175 273.034 62.3224C277.421 62.9295 283.479 63.8423 290.186 64.922L289.564 65.2819C289.619 65.1345 289.678 64.9762 289.739 64.8179C292.17 58.3937 294.431 52.5983 296.121 48.4246C297.811 44.2488 298.93 41.6947 299.076 41.7489Z" fill="#3A3A3A"/>
<path fill-rule="evenodd" clip-rule="evenodd" d="M276.921 83.0582C276.615 82.991 277.516 78.7393 278.933 73.5661C280.353 68.3907 281.744 64.2734 282.043 64.3688C282.341 64.4642 281.441 68.7159 280.03 73.8631C278.619 79.0081 277.226 83.1254 276.921 83.0582Z" fill="#3A3A3A"/>
<path fill-rule="evenodd" clip-rule="evenodd" d="M311.924 61.1258C311.876 61.4337 307.698 61.0326 302.593 60.226C297.489 59.4238 293.391 58.5219 293.439 58.214C293.49 57.9061 297.665 58.3072 302.772 59.1116C307.874 59.916 311.971 60.8179 311.924 61.1258Z" fill="#3A3A3A"/>
<path fill-rule="evenodd" clip-rule="evenodd" d="M42.2532 89.3791L42.9924 99.0685C42.9924 99.0685 34.7065 100.181 37.0702 107.696C39.4316 115.21 45.0988 111.921 45.0988 111.921C45.0988 111.921 46.5161 131.179 66.3565 125.073C82.1456 120.214 81.1796 99.8838 79.1757 82.5516C78.3995 75.8369 72.0106 71.2209 65.3382 72.5131L53.4109 74.8244C46.5183 76.1578 41.7212 82.415 42.2532 89.3791Z" fill="#3A3A3A"/>
<path fill-rule="evenodd" clip-rule="evenodd" d="M42.9932 107.111L48.3398 135.455C49.5434 141.843 55.8756 145.928 62.2318 144.421C68.1213 143.022 71.8936 137.301 70.836 131.373L67.9338 115.127L42.9932 107.111Z" fill="#3A3A3A"/>
<path fill-rule="evenodd" clip-rule="evenodd" d="M64.9377 107.431C65.014 107.377 65.1754 107.683 65.5373 107.724C65.8906 107.761 66.4292 107.397 66.56 106.627C66.741 105.864 66.6407 104.86 66.5317 103.698C66.4379 102.449 66.3463 101.213 66.2504 99.9209C65.9124 94.557 65.8906 90.1925 66.2046 90.1729C66.5186 90.1535 67.0463 94.4854 67.3842 99.8494C67.4496 101.146 67.5129 102.382 67.5761 103.633C67.6219 104.78 67.6655 105.914 67.3297 106.852C67.0681 107.832 66.0541 108.44 65.4218 108.149C64.8156 107.843 64.8963 107.425 64.9377 107.431Z" fill="#3A3A3A"/>
<path fill-rule="evenodd" clip-rule="evenodd" d="M71.3739 123.095C71.4633 123.199 70.674 124.064 69.043 124.997C67.4294 125.927 64.9087 126.844 62.0065 126.902C59.1042 126.965 56.5443 126.157 54.8937 125.294C53.2256 124.431 52.4013 123.6 52.4842 123.492C52.6303 123.178 56.4985 125.907 61.9825 125.773C67.4665 125.677 71.2169 122.787 71.3739 123.095Z" fill="#3A3A3A"/>
<path fill-rule="evenodd" clip-rule="evenodd" d="M67.4982 111.407C67.6094 111.488 67.3543 112.123 66.4755 112.736C65.6273 113.343 64.0661 113.838 62.4263 113.324C60.7931 112.793 59.8141 111.485 59.4805 110.501C59.1272 109.493 59.2908 108.827 59.4282 108.829C59.6004 108.814 59.7356 109.402 60.2066 110.161C60.6623 110.913 61.5389 111.85 62.773 112.251C64.0116 112.641 65.2719 112.389 66.0852 112.04C66.9116 111.696 67.3674 111.297 67.4982 111.407Z" fill="#3A3A3A"/>
<path fill-rule="evenodd" clip-rule="evenodd" d="M42.3692 108.635C42.3714 108.767 41.8852 108.999 41.0239 108.748C40.6117 108.62 40.0666 108.253 39.8333 107.618C39.7156 107.308 39.6632 106.928 39.781 106.532C39.8747 106.144 40.2476 105.725 40.6597 105.591C41.2223 105.363 42.0094 105.497 42.3736 106.113L41.4098 106.612C40.7796 105.025 40.4744 103.808 40.7099 103.704C40.9432 103.6 41.6453 104.643 42.4041 106.174L41.4403 106.673C41.4185 106.64 41.2594 106.571 41.0631 106.647C40.8516 106.709 40.7557 106.961 40.8276 107.293C40.8974 107.609 41.1089 107.846 41.3662 108.026C41.8873 108.368 42.3823 108.468 42.3692 108.635Z" fill="#3A3A3A"/>
<path fill-rule="evenodd" clip-rule="evenodd" d="M72.8837 95.0382C72.5785 95.1076 72.1729 94.468 71.9767 93.6116C71.7826 92.7552 71.8742 92.0071 72.1794 91.9378C72.4847 91.8684 72.8903 92.508 73.0844 93.3644C73.2806 94.2208 73.189 94.9688 72.8837 95.0382Z" fill="#3A3A3A"/>
<path fill-rule="evenodd" clip-rule="evenodd" d="M56.0858 96.5915C55.7827 96.6761 55.3444 96.0473 55.1045 95.1909C54.8647 94.3323 54.917 93.5713 55.2201 93.4868C55.521 93.4044 55.9593 94.031 56.1991 94.8896C56.439 95.746 56.3888 96.507 56.0858 96.5915Z" fill="#3A3A3A"/>
<path fill-rule="evenodd" clip-rule="evenodd" d="M57.6458 89.5359C57.5498 89.8416 56.6558 89.8308 55.6659 90.1061C54.6672 90.349 53.8931 90.7956 53.6598 90.5745C53.4178 90.388 54.037 89.3603 55.378 89.0134C56.7147 88.66 57.7635 89.2541 57.6458 89.5359Z" fill="#3A3A3A"/>
<path fill-rule="evenodd" clip-rule="evenodd" d="M74.798 86.8328C74.6715 87.1277 73.6881 86.9824 72.5368 87.0951C71.3833 87.1819 70.4392 87.4962 70.2647 87.2274C70.0772 86.9867 70.9712 86.0956 72.4387 85.972C73.9062 85.8398 74.9397 86.5639 74.798 86.8328Z" fill="#3A3A3A"/>
<path fill-rule="evenodd" clip-rule="evenodd" d="M42.993 99.0686C48.5315 93.7003 50.1582 84.7567 51.6606 77.2137C56.7891 80.9277 63.843 81.8405 69.7566 79.5575C71.6122 81.7256 73.7927 83.6206 76.2021 85.1556C76.889 85.5936 77.7001 86.0185 78.4808 85.7844C79.4097 85.5069 79.824 84.4466 80.0442 83.5057C80.7528 80.4984 80.779 77.2788 79.7237 74.3713C78.6683 71.4681 76.4551 68.9141 73.5572 67.7996C70.4609 66.6072 66.9764 67.1254 63.7602 67.9536C58.9173 69.2024 54.2488 71.1212 49.9314 73.6363C45.6925 76.1036 41.6237 79.371 39.8248 83.9133C38.028 88.4577 38.0368 97.2907 42.3694 99.5868" fill="#3A3A3A"/>
<path fill-rule="evenodd" clip-rule="evenodd" d="M65.5969 112.458C65.863 113.987 64.5525 115.474 62.7601 115.103C60.9677 114.715 60.3812 112.829 61.249 111.539C62.1147 110.231 63.2703 109.457 63.9398 109.579C64.6004 109.739 65.3418 110.914 65.5969 112.458Z" fill="#3A3A3A"/>
<path fill-rule="evenodd" clip-rule="evenodd" d="M58.6953 103.462C58.97 104.991 57.0708 106.608 54.4215 106.725C51.7722 106.849 49.7312 105.407 49.8686 103.861C50.0016 102.302 51.9248 101.194 54.1642 101.086C56.4036 100.99 58.4206 101.923 58.6953 103.462Z" fill="#3A3A3A"/>
<path fill-rule="evenodd" clip-rule="evenodd" d="M79.6732 101.759C79.985 103.281 78.3213 104.901 75.9227 105.022C73.522 105.146 71.7013 103.704 71.8539 102.158C72.0044 100.602 73.6964 99.4893 75.6305 99.3831C77.5668 99.292 79.3636 100.224 79.6732 101.759Z" fill="#3A3A3A"/>
<path fill-rule="evenodd" clip-rule="evenodd" d="M42.7656 124.718C42.4472 124.711 42.2706 121.602 42.07 117.784C41.8759 113.964 41.7298 110.855 42.046 110.816C42.3513 110.775 43.0076 113.858 43.2039 117.726C43.4067 121.594 43.073 124.727 42.7656 124.718Z" fill="#3A3A3A"/>
<path fill-rule="evenodd" clip-rule="evenodd" d="M75.6848 136.839C70.3229 134.721 111.565 149.945 111.565 149.945L107.381 177.997L91.694 172.88L75.6848 136.839Z" fill="#3A3A3A" fill-opacity="0.5"/>
<path fill-rule="evenodd" clip-rule="evenodd" d="M51.1435 73.3823C52.4409 71.4353 52.8683 68.9376 52.2905 66.6741C51.8151 64.8095 50.4 62.9601 48.4681 62.8625C47.3713 62.8061 46.3072 63.3373 45.5004 64.081C43.5074 65.9152 42.995 69.1458 44.3229 71.5004C45.6509 73.855 48.6883 75.106 51.3027 74.3753" fill="#3A3A3A"/>
<path fill-rule="evenodd" clip-rule="evenodd" d="M297.542 253.034C297.542 253.034 310.956 233.911 309.321 241.15C307.685 248.39 294.059 280.567 294.059 280.567L297.542 253.034Z" fill="#3A3A3A" fill-opacity="0.5"/>
<path fill-rule="evenodd" clip-rule="evenodd" d="M102.98 224.133C102.98 224.133 120.706 218.604 120.097 220.423C119.489 222.24 116.473 222.307 113.458 225.241C113.458 225.241 133.272 225.453 132.319 227.077C131.366 228.699 118.469 229.109 118.39 229.384C118.314 229.661 132.498 230.006 132.18 231.507C131.859 233.009 118.678 232.643 118.678 232.643C118.678 232.643 130.897 233.935 130.647 235.552C130.396 237.172 119.131 236.005 119.131 236.005C119.131 236.005 128.56 237.076 128.314 238.542C128.165 239.435 100.708 239.637 100.651 240.294C100.621 240.639 102.98 224.133 102.98 224.133Z" fill="#3A3A3A"/>
<path fill-rule="evenodd" clip-rule="evenodd" d="M130.421 136.839C130.421 136.839 119.658 121.878 121.577 121.887C123.496 121.894 124.497 124.71 128.223 126.638C128.223 126.638 122.277 107.931 124.115 108.323C125.958 108.716 130.349 120.723 130.637 120.71C130.923 120.697 126.847 107.244 128.376 107.079C129.902 106.914 133.646 119.429 133.646 119.429C133.646 119.429 131.082 107.532 132.7 107.265C134.32 106.999 136.705 117.958 136.705 117.958C136.705 117.958 134.797 108.755 136.269 108.529C137.165 108.393 145.29 131.223 145.29 131.223C145.076 131.223 130.421 136.839 130.421 136.839Z" fill="#3A3A3A" fill-opacity="0.5"/>
<path fill-rule="evenodd" clip-rule="evenodd" d="M31.1591 177.996C31.2768 177.985 31.678 178.694 31.6998 180.108C31.6955 180.793 31.4142 181.788 30.5376 182.408C30.119 182.718 29.4954 182.94 28.8499 182.799C28.211 182.666 27.7291 182.235 27.3824 181.858C26.6803 181.045 26.2246 180.563 25.505 180.479C24.816 180.37 24.1945 180.6 23.7955 180.962C22.9582 181.723 22.9844 182.601 22.8143 182.591C22.7009 182.662 22.267 181.652 23.209 180.416C23.669 179.826 24.5958 179.345 25.6228 179.445C26.1308 179.488 26.6738 179.668 27.1317 180.015C27.5787 180.351 27.897 180.756 28.211 181.09C29.3405 182.621 30.8189 181.127 30.8996 180.026C31.0784 178.863 30.9737 178.009 31.1591 177.996Z" fill="#3A3A3A"/>
<path fill-rule="evenodd" clip-rule="evenodd" d="M40.8413 169.687C40.7694 169.593 41.1706 168.882 42.3742 168.13C42.9651 167.776 43.966 167.499 44.9538 167.917C45.4378 168.112 45.9524 168.527 46.1683 169.149C46.3863 169.76 46.2664 170.395 46.1247 170.885C45.7889 171.902 45.6144 172.542 45.9154 173.199C46.1792 173.838 46.7003 174.246 47.2215 174.396C48.3074 174.71 49.0487 174.231 49.1294 174.383C49.2493 174.441 48.6061 175.335 47.0558 175.178C46.31 175.096 45.4138 174.56 44.9647 173.635C44.7379 173.179 44.6114 172.624 44.6703 172.056C44.727 171.501 44.908 171.02 45.0301 170.58C45.7605 168.826 43.7065 168.347 42.7166 168.852C41.6285 169.305 40.9482 169.838 40.8413 169.687Z" fill="#3A3A3A"/>
<path fill-rule="evenodd" clip-rule="evenodd" d="M40.1878 148.985C40.1158 148.89 40.517 148.181 41.7185 147.429C42.3094 147.075 43.3124 146.795 44.3002 147.216C44.7843 147.411 45.2989 147.825 45.5125 148.448C45.7328 149.059 45.6129 149.694 45.4711 150.184C45.1353 151.201 44.9587 151.841 45.2618 152.496C45.5256 153.137 46.0468 153.545 46.5657 153.695C47.6538 154.009 48.3952 153.53 48.4759 153.682C48.5958 153.74 47.9525 154.633 46.4 154.477C45.6543 154.393 44.7603 153.857 44.3111 152.934C44.0843 152.478 43.9579 151.923 44.0145 151.355C44.0712 150.8 44.2544 150.319 44.3765 149.879C45.1048 148.125 43.0529 147.645 42.063 148.148C40.9727 148.604 40.2946 149.137 40.1878 148.985Z" fill="#3A3A3A"/>
<path fill-rule="evenodd" clip-rule="evenodd" d="M60.8333 175.947C60.7439 176.025 60.0003 175.689 59.1412 174.566C58.7356 174.011 58.3693 173.044 58.7029 172.027C58.8556 171.53 59.2263 170.984 59.8303 170.717C60.4233 170.446 61.0688 170.511 61.5725 170.609C62.6213 170.852 63.2776 170.971 63.9078 170.615C64.5271 170.296 64.889 169.744 64.9959 169.217C65.2161 168.111 64.671 167.419 64.8149 167.326C64.865 167.203 65.8157 167.762 65.7918 169.312C65.7743 170.058 65.3164 170.99 64.4289 171.517C63.9928 171.782 63.4499 171.955 62.8742 171.946C62.3117 171.94 61.8145 171.801 61.3631 171.719C59.5424 171.149 59.2415 173.226 59.8324 174.16C60.3819 175.201 60.975 175.827 60.8333 175.947Z" fill="#3A3A3A"/>
<path fill-rule="evenodd" clip-rule="evenodd" d="M74.9108 197.597C74.974 197.696 74.5226 198.373 73.2689 199.038C72.6518 199.349 71.6335 199.55 70.6784 199.06C70.2096 198.83 69.7277 198.379 69.5576 197.742C69.3854 197.117 69.5533 196.493 69.7321 196.016C70.1398 195.023 70.3622 194.399 70.1115 193.724C69.8934 193.065 69.405 192.621 68.8969 192.432C67.8372 192.04 67.0631 192.465 66.9934 192.309C66.8778 192.239 67.5865 191.396 69.1215 191.667C69.8585 191.803 70.7111 192.402 71.0905 193.358C71.2824 193.828 71.3696 194.39 71.2693 194.954C71.1712 195.502 70.9532 195.971 70.7983 196.4C69.9414 198.093 71.954 198.726 72.9788 198.293C74.0974 197.92 74.8148 197.438 74.9108 197.597Z" fill="#3A3A3A"/>
<path fill-rule="evenodd" clip-rule="evenodd" d="M91.4838 163.45C91.547 163.55 91.0956 164.229 89.8418 164.892C89.2248 165.2 88.2065 165.404 87.2514 164.914C86.7826 164.684 86.3007 164.233 86.1306 163.598C85.9584 162.971 86.1263 162.347 86.3051 161.87C86.7128 160.879 86.9352 160.254 86.6845 159.578C86.4664 158.919 85.978 158.474 85.4699 158.286C84.4102 157.893 83.6361 158.316 83.5664 158.162C83.4508 158.093 84.1594 157.249 85.6945 157.52C86.4315 157.657 87.2841 158.255 87.6635 159.211C87.8576 159.682 87.9426 160.243 87.8423 160.807C87.7442 161.356 87.5262 161.824 87.3713 162.253C86.5144 163.949 88.527 164.578 89.5518 164.146C90.6704 163.773 91.3878 163.292 91.4838 163.45Z" fill="#3A3A3A"/>
<path fill-rule="evenodd" clip-rule="evenodd" d="M102.791 158.255C102.863 158.162 103.657 158.355 104.71 159.305C105.209 159.777 105.748 160.662 105.606 161.722C105.547 162.236 105.283 162.841 104.738 163.214C104.204 163.587 103.559 163.641 103.044 163.637C101.969 163.589 101.302 163.591 100.748 164.055C100.198 164.482 99.9434 165.089 99.9346 165.629C99.9237 166.755 100.587 167.336 100.462 167.453C100.436 167.585 99.3982 167.208 99.1344 165.679C99.0167 164.942 99.2936 163.942 100.07 163.264C100.449 162.923 100.953 162.655 101.52 162.557C102.074 162.464 102.588 162.509 103.048 162.507C104.941 162.737 104.858 160.643 104.104 159.83C103.371 158.906 102.673 158.399 102.791 158.255Z" fill="#3A3A3A"/>
<path fill-rule="evenodd" clip-rule="evenodd" d="M57.0473 215.253C57.1105 215.353 56.6591 216.029 55.4054 216.695C54.7883 217.003 53.77 217.206 52.8149 216.716C52.3461 216.484 51.8642 216.036 51.6941 215.398C51.5219 214.774 51.6898 214.149 51.8664 213.672C52.2763 212.679 52.4987 212.055 52.248 211.381C52.0299 210.721 51.5415 210.277 51.0334 210.088C49.9715 209.696 49.1975 210.121 49.1299 209.965C49.0143 209.895 49.7208 209.052 51.258 209.323C51.995 209.46 52.8476 210.058 53.227 211.014C53.4189 211.485 53.504 212.046 53.4058 212.61C53.3077 213.158 53.0897 213.627 52.9348 214.054C52.0779 215.749 54.0905 216.38 55.1132 215.949C56.2339 215.576 56.9513 215.095 57.0473 215.253Z" fill="#3A3A3A"/>
<path fill-rule="evenodd" clip-rule="evenodd" d="M81.577 182.394C81.4789 182.461 80.7789 182.041 80.0593 180.822C79.7214 180.226 79.475 179.22 79.9263 178.251C80.1378 177.776 80.5718 177.277 81.2019 177.082C81.8234 176.885 82.4579 177.023 82.9463 177.18C83.9581 177.546 84.5948 177.739 85.2642 177.461C85.9162 177.216 86.3436 176.711 86.5115 176.202C86.8603 175.128 86.4003 174.378 86.5551 174.305C86.6205 174.185 87.497 174.851 87.2899 176.388C87.1831 177.127 86.6183 178.001 85.6741 178.42C85.2097 178.63 84.6493 178.738 84.078 178.663C83.522 178.589 83.0423 178.394 82.6062 178.257C80.8661 177.479 80.3188 179.504 80.7964 180.503C81.2172 181.6 81.7318 182.292 81.577 182.394Z" fill="#3A3A3A"/>
<path fill-rule="evenodd" clip-rule="evenodd" d="M85.9794 200.048C85.8835 200.115 85.1814 199.694 84.4618 198.476C84.126 197.88 83.8774 196.874 84.331 195.904C84.5403 195.43 84.9742 194.933 85.6066 194.738C86.228 194.539 86.8604 194.677 87.3488 194.836C88.3605 195.2 88.9994 195.395 89.6667 195.115C90.3186 194.87 90.746 194.367 90.9139 193.856C91.2628 192.782 90.8049 192.034 90.9575 191.958C91.0229 191.841 91.8995 192.505 91.6945 194.042C91.5877 194.781 91.0208 195.655 90.0766 196.074C89.6143 196.286 89.0518 196.392 88.4805 196.316C87.9244 196.243 87.4469 196.048 87.0086 195.913C85.2686 195.133 84.7213 197.158 85.1988 198.157C85.6196 199.254 86.1364 199.946 85.9794 200.048Z" fill="#3A3A3A"/>
<path fill-rule="evenodd" clip-rule="evenodd" d="M50.477 192.516C50.3593 192.501 50.1259 191.723 50.416 190.34C50.5708 189.672 51.0657 188.763 52.0557 188.347C52.5332 188.135 53.1896 188.054 53.7892 188.334C54.3845 188.603 54.7595 189.13 55.0146 189.572C55.5183 190.517 55.8585 191.088 56.541 191.328C57.1908 191.584 57.8449 191.493 58.3159 191.226C59.2993 190.667 59.4672 189.806 59.633 189.852C59.7594 189.808 59.9578 190.89 58.7673 191.89C58.1895 192.365 57.1799 192.633 56.1987 192.31C55.7102 192.159 55.2218 191.864 54.8511 191.426C54.4891 191.001 54.2667 190.535 54.0334 190.14C53.2724 188.403 51.4997 189.537 51.1769 190.593C50.7474 191.688 50.6602 192.547 50.477 192.516Z" fill="#3A3A3A"/>
<path fill-rule="evenodd" clip-rule="evenodd" d="M82.5395 214.312C82.4218 214.297 82.1863 213.519 82.4784 212.135C82.6311 211.468 83.1282 210.559 84.1182 210.143C84.5935 209.93 85.2521 209.85 85.8517 210.13C86.447 210.399 86.8198 210.926 87.0771 211.368C87.5808 212.313 87.921 212.883 88.6035 213.124C89.2511 213.38 89.9074 213.289 90.3784 213.022C91.3618 212.463 91.5297 211.602 91.6933 211.648C91.8197 211.604 92.0203 212.686 90.8276 213.686C90.2498 214.16 89.2402 214.429 88.2611 214.106C87.7727 213.954 87.2843 213.66 86.9136 213.222C86.5516 212.797 86.3292 212.331 86.0959 211.936C85.3349 210.199 83.56 211.333 83.2394 212.391C82.8099 213.484 82.7227 214.343 82.5395 214.312Z" fill="#3A3A3A"/>
<path fill-rule="evenodd" clip-rule="evenodd" d="M81.6098 148.284C81.4921 148.269 81.2566 147.488 81.5488 146.107C81.7014 145.439 82.1985 144.529 83.1885 144.115C83.6638 143.902 84.3224 143.822 84.922 144.102C85.5173 144.368 85.8901 144.897 86.1474 145.337C86.6511 146.285 86.9913 146.855 87.6738 147.096C88.3214 147.349 88.9777 147.261 89.4487 146.994C90.4321 146.434 90.6 145.574 90.7636 145.619C90.89 145.574 91.0907 146.656 89.8979 147.655C89.3201 148.132 88.3105 148.399 87.3315 148.078C86.843 147.924 86.3546 147.629 85.9839 147.193C85.6219 146.766 85.3995 146.3 85.1662 145.908C84.4052 144.169 82.6303 145.303 82.3098 146.361C81.8802 147.456 81.793 148.312 81.6098 148.284Z" fill="#3A3A3A"/>
<path fill-rule="evenodd" clip-rule="evenodd" d="M71.1355 223.078C71.0744 223.18 70.2633 223.085 69.0989 222.274C68.5429 221.869 67.8996 221.058 67.9062 219.989C67.8996 219.471 68.085 218.837 68.5799 218.4C69.0618 217.964 69.6964 217.829 70.2066 217.769C71.2794 217.684 71.9401 217.597 72.4329 217.068C72.9235 216.576 73.1001 215.943 73.0413 215.407C72.9104 214.289 72.18 213.794 72.289 213.662C72.2977 213.53 73.3749 213.773 73.8284 215.258C74.0399 215.973 73.8895 216.999 73.2048 217.771C72.8712 218.155 72.4067 218.486 71.8551 218.651C71.3165 218.814 70.7997 218.833 70.3462 218.89C68.4382 218.898 68.7849 220.967 69.6353 221.678C70.477 222.504 71.2336 222.92 71.1355 223.078Z" fill="#3A3A3A"/>
<path fill-rule="evenodd" clip-rule="evenodd" d="M33.1075 158.256C33.21 158.197 33.8663 158.685 34.4638 159.966C34.7407 160.595 34.8868 161.616 34.3417 162.54C34.0866 162.991 33.6068 163.446 32.9592 163.578C32.3203 163.715 31.7033 163.513 31.2323 163.312C30.2598 162.85 29.6449 162.594 28.9536 162.807C28.2799 162.987 27.8067 163.448 27.5887 163.941C27.1351 164.973 27.5189 165.764 27.3575 165.825C27.2834 165.935 26.4744 165.185 26.832 163.676C27.0108 162.952 27.6584 162.139 28.6397 161.814C29.1215 161.649 29.6907 161.595 30.251 161.727C30.7962 161.853 31.2541 162.095 31.6771 162.273C33.3321 163.216 34.0757 161.254 33.6984 160.213C33.3866 159.08 32.9418 158.342 33.1075 158.256Z" fill="#3A3A3A"/>
<path fill-rule="evenodd" clip-rule="evenodd" d="M69.8128 151.722C69.9153 151.664 70.5717 152.152 71.1691 153.433C71.446 154.062 71.5921 155.085 71.047 156.007C70.7919 156.458 70.3122 156.913 69.6646 157.045C69.0257 157.182 68.4086 156.98 67.9376 156.779C66.9651 156.317 66.3502 156.061 65.659 156.273C64.9852 156.453 64.512 156.915 64.294 157.407C63.8404 158.439 64.2242 159.231 64.0628 159.291C63.9887 159.402 63.1797 158.654 63.5373 157.143C63.7161 156.419 64.3638 155.606 65.345 155.283C65.8269 155.116 66.396 155.061 66.9564 155.194C67.5015 155.319 67.9594 155.562 68.3824 155.74C70.0374 156.683 70.781 154.721 70.4038 153.68C70.0919 152.546 69.6471 151.809 69.8128 151.722Z" fill="#3A3A3A"/>
<path fill-rule="evenodd" clip-rule="evenodd" d="M47.185 190.13C47.1065 190.122 47.1196 189.326 47.209 187.897C47.2984 186.466 47.4641 184.4 47.693 181.85C48.1488 176.753 48.8683 169.711 49.7122 161.958C49.9041 160.032 50.0022 158.159 49.7362 156.411C49.4898 154.662 48.8073 153.09 47.8152 151.813C45.8134 149.235 42.9723 147.895 40.5563 147.32C38.1075 146.737 36.0208 146.765 34.5991 146.804C33.1709 146.854 32.3772 146.943 32.3639 146.856C32.351 146.789 33.1207 146.553 34.562 146.366C35.999 146.191 38.1359 146.033 40.7329 146.542C43.2906 147.045 46.3913 148.378 48.6394 151.175C49.758 152.554 50.5561 154.341 50.8373 156.242C51.1404 158.144 51.0358 160.112 50.8417 162.068C49.9957 169.845 49.1518 176.857 48.4911 181.937C48.1597 184.476 47.8718 186.529 47.6473 187.943C47.4248 189.361 47.2635 190.139 47.185 190.13Z" fill="#3A3A3A"/>
<path fill-rule="evenodd" clip-rule="evenodd" d="M48.6405 188.358C48.6731 188.668 41.2223 189.707 31.9966 190.676C22.7709 191.65 15.2656 192.185 15.2328 191.873C15.2002 191.565 22.651 190.524 31.8789 189.555C41.1002 188.584 48.6077 188.046 48.6405 188.358Z" fill="#3A3A3A"/>
<path fill-rule="evenodd" clip-rule="evenodd" d="M94.0563 184.691C93.6835 184.657 95.4868 178.118 93.4284 170.327C91.4986 162.503 86.7756 157.613 87.0896 157.405C87.1769 157.319 88.4743 158.385 90.0835 160.553C91.6927 162.709 93.5003 166.045 94.5295 170.05C95.5456 174.054 95.5565 177.844 95.1771 180.502C94.8021 183.171 94.1763 184.726 94.0563 184.691Z" fill="#3A3A3A" fill-opacity="0.5"/>
<path fill-rule="evenodd" clip-rule="evenodd" d="M181.328 185.218C181.609 183.358 181.555 181.589 182.601 179.95C184.684 176.68 187.651 177.493 190.525 178.931C193.443 180.39 196.188 181.268 199.361 179.902C204.358 177.751 206.571 170.397 201.92 166.843C200.412 165.692 198.859 167.589 199.084 169.011C199.4 171.015 200.381 173.226 198.654 174.948C196.345 177.252 193.635 175.323 191.328 174.286C188.846 173.17 186.212 172.923 183.648 173.95C179.234 175.72 176.027 181.667 179.533 185.689C180.028 186.257 181.21 185.999 181.328 185.218Z" fill="#3A3A3A" fill-opacity="0.5"/>
<path fill-rule="evenodd" clip-rule="evenodd" d="M193.021 99.7886C193.49 102.805 196.636 109.168 199.955 110.046C201.715 110.512 203.023 109.359 204.39 108.422C206.88 106.716 209.34 104.971 211.804 103.225C212.694 102.596 213.221 101.384 212.558 100.37C210.378 97.0329 208.2 93.6962 206.019 90.3616C205.441 89.4791 204.109 88.9349 203.147 89.6136C200.424 91.528 197.509 93.3037 195.023 95.5196C193.324 97.0373 195.494 99.6217 197.402 98.5853C200.169 97.0806 202.692 95.0296 205.267 93.2192C204.307 92.9698 203.35 92.7205 202.393 92.4712C204.571 95.8058 206.752 99.1425 208.93 102.477C209.183 101.525 209.434 100.571 209.685 99.6195C208.206 100.667 206.723 101.707 205.249 102.759C204.51 103.286 201.486 106.031 200.683 105.851C199.73 105.638 198.193 102.909 197.591 102.195C196.545 100.959 195.566 99.7908 194.214 98.8759C193.564 98.4336 192.925 99.1621 193.021 99.7886Z" fill="#3A3A3A" fill-opacity="0.5"/>
<path fill-rule="evenodd" clip-rule="evenodd" d="M162.149 130.892C158.723 134.163 157.419 139.256 160.688 143.185C163.763 146.886 169.718 147.671 173.56 144.722C182.838 137.602 173.167 124.465 163.156 127.184C161.303 127.687 161.765 130.315 163.597 130.419C166.523 130.584 169.656 130.697 171.994 132.735C174.506 134.927 174.56 138.632 172.502 141.151C167.044 147.823 157.566 137.999 163.298 132.034C164.02 131.282 162.906 130.17 162.149 130.892Z" fill="#3A3A3A" fill-opacity="0.5"/>
<path fill-rule="evenodd" clip-rule="evenodd" d="M240.995 161.156C239.814 167.257 238.806 173.371 237.866 179.513C237.642 180.99 238.664 181.987 240.138 181.773C245.941 180.934 251.726 180.16 257.452 178.902C258.553 178.659 259 177.311 258.477 176.394C255.232 170.715 251.1 162.804 244.994 159.705C243.448 158.92 241.259 160.618 242.415 162.27C244.231 164.87 246.92 166.819 249.035 169.2C251.471 171.942 253.758 174.893 255.513 178.117C256.006 177.261 256.501 176.404 256.994 175.55C250.997 176.138 245.095 177.211 239.157 178.232C239.938 178.822 240.716 179.412 241.495 180.003C242.21 173.829 242.849 167.665 243.313 161.468C243.414 160.161 241.248 159.853 240.995 161.156Z" fill="#3A3A3A" fill-opacity="0.5"/>
<path fill-rule="evenodd" clip-rule="evenodd" d="M217.008 131.302C217.091 129.392 213.964 128.915 213.604 130.843C212.473 136.903 212.065 143.372 212.019 149.524C212.01 150.805 214.016 151.128 214.309 149.831C215.652 143.854 216.74 137.423 217.008 131.302Z" fill="#3A3A3A" fill-opacity="0.5"/>
<path fill-rule="evenodd" clip-rule="evenodd" d="M299.12 150.133C301.388 150.053 301.303 146.916 299.12 146.69C293.094 146.066 286.726 146.2 280.686 146.634C279.474 146.72 278.992 148.717 280.377 148.91C286.493 149.762 292.945 150.356 299.12 150.133Z" fill="#3A3A3A" fill-opacity="0.5"/>
<path fill-rule="evenodd" clip-rule="evenodd" d="M230.525 71.4183C235.935 74.3192 241.864 77.1465 247.725 79.0219C249.572 79.6138 250.826 76.7541 249.06 75.8738C243.547 73.1246 237.337 71.0041 231.424 69.3C230.168 68.9401 229.35 70.7873 230.525 71.4183Z" fill="#3A3A3A" fill-opacity="0.5"/>
<path fill-rule="evenodd" clip-rule="evenodd" d="M247.682 120.746C246.313 119.539 244.064 119.305 242.732 120.746C241.385 122.206 241.435 124.209 242.732 125.67C242.824 125.772 242.915 125.876 243.009 125.98C244.235 127.359 246.762 127.318 247.996 125.98C249.224 124.651 249.47 122.321 247.996 121.022C247.891 120.931 247.787 120.84 247.682 120.746Z" fill="#3A3A3A" fill-opacity="0.5"/>
<path fill-rule="evenodd" clip-rule="evenodd" d="M271.435 101.916C267.918 105.071 266.579 109.982 269.935 113.773C273.095 117.339 279.208 118.096 283.153 115.253C292.681 108.387 282.75 95.7193 272.47 98.3411C270.567 98.8261 271.041 101.36 272.922 101.46C275.927 101.619 279.145 101.728 281.547 103.695C284.125 105.807 284.183 109.38 282.067 111.809C276.462 118.243 266.731 108.77 272.615 103.018C273.359 102.293 272.212 101.22 271.435 101.916Z" fill="#7CABFF"/>
<path fill-rule="evenodd" clip-rule="evenodd" d="M47.7508 70.9384C44.3098 69.3987 40.0761 69.7545 36.9465 71.844C33.8169 73.9336 31.8983 77.6878 32.0507 81.4248C32.1705 84.3446 33.3465 87.6675 31.4714 89.9252C30.021 91.6676 27.4337 91.8315 25.356 92.763C21.4054 94.5313 19.4388 99.7044 21.2355 103.612C22.2069 105.727 24.1342 107.674 23.7662 109.969C23.5288 111.455 22.3375 112.63 21.0199 113.378C19.7002 114.124 18.2236 114.551 16.8581 115.211C11.8839 117.622 8.86321 123.222 9.00477 128.703C9.1485 134.185 12.1953 139.386 16.5641 142.756C20.935 146.127 26.5059 147.764 32.0398 147.968C37.5868 148.173 43.3886 146.886 47.6201 143.332C50.7976 140.663 52.8709 136.923 54.3997 133.087C57.3093 125.792 58.4876 117.829 57.8168 110.016C57.1177 101.908 54.4716 94.0504 53.8923 85.9338C53.6985 83.2146 53.7377 80.4588 53.1257 77.8C52.5137 75.1411 51.1395 72.5125 48.7853 71.1001" fill="#241352"/>
<path fill-rule="evenodd" clip-rule="evenodd" d="M47.9248 70.7438C51.0324 64.1205 57.211 59.098 64.2121 57.5061C68.5116 56.5284 73.2299 56.8587 77.0075 59.1795C80.7873 61.5003 83.3987 66.0273 82.8232 70.506C82.4667 73.2737 81.002 75.7442 80.0721 78.3689C79.1422 80.9957 78.8373 84.1972 80.5661 86.3551C82.1166 88.2927 84.7753 88.7705 86.8929 90.0234C89.9167 91.8157 91.8173 95.4312 91.6176 99.0071C91.4179 102.583 89.1242 105.952 85.92 107.376C89.1027 107.755 92.0943 109.58 93.9348 112.267C95.7775 114.955 96.4389 118.458 95.7087 121.658C94.6607 126.242 91.027 129.75 87.1184 132.227C81.6893 135.668 75.3925 137.663 69.0142 137.958C62.2449 138.273 54.7477 136.219 51.0646 130.386C48.6485 126.557 48.2791 121.779 48.0086 117.225C47.1903 103.481 46.6298 89.7217 46.0693 75.9644C45.9791 73.7515 45.891 71.5034 46.4 69.35" fill="#241352"/>
<path fill-rule="evenodd" clip-rule="evenodd" d="M69 133.69L131.182 156.174L125.246 131.954L141.417 127.989C141.417 127.989 158.811 175.336 146.731 176.603C125.582 178.823 93.5834 170.746 93.5834 170.746L69 133.69Z" fill="#FFAFA7"/>
<path fill-rule="evenodd" clip-rule="evenodd" d="M65 237.9C65 237.9 138.997 156.815 188.953 174.517C238.908 192.221 260 274.808 260 274.808L220.211 274.159C220.211 274.159 188.788 211.783 173.455 214.199C158.119 216.619 110.763 275.989 110.763 275.989L65 237.9Z" fill="#354A80"/>
<path fill-rule="evenodd" clip-rule="evenodd" d="M87.9043 189.365L91 236.576C74.9228 256.114 18.9531 230.853 18.9531 230.853L18.2999 211.114L17 164.1C18.289 145.378 35.8823 136.19 35.8823 136.19C43.1552 132.606 54.2469 130.571 64.2397 131.062C74.6716 131.569 77.2495 136.508 81.5468 145.916C85.0183 153.517 94.4409 165.901 87.9043 189.365Z" fill="#D1C4B2"/>
<path fill-rule="evenodd" clip-rule="evenodd" d="M30.3377 239.103C30.3377 239.103 21.816 274.926 47.7898 280.573C73.7637 286.218 169.294 273.01 194.176 275.27C219.058 277.525 289.819 281.791 289.819 281.791L295 239.249C295 239.249 184.882 233.798 172.437 236.994C159.991 240.186 30.3377 239.103 30.3377 239.103Z" fill="#354A80"/>
<path fill-rule="evenodd" clip-rule="evenodd" d="M41.7539 178.989C41.7539 178.989 33.9162 225.185 44.9692 224.047C81.3258 220.308 102.974 219.805 102.974 219.805L109 232.317C109.14 234.45 40.1496 254.202 29.0638 247.672C21.237 243.061 8.76794 230.641 14.4279 193.523L15.7652 181.08L41.7539 178.989Z" fill="#FFAFA7"/>
<path fill-rule="evenodd" clip-rule="evenodd" d="M75.0742 244.989L75 241.841L120.508 235.291L132.587 192.235L183 190.989L169.397 237.592L75.0742 244.989Z" fill="#ACA7B5"/>
<path fill-rule="evenodd" clip-rule="evenodd" d="M156.999 214.891C157.053 217.099 155.305 218.934 153.097 218.988C150.889 219.04 149.055 217.293 149.001 215.085C148.947 212.88 150.695 211.044 152.903 210.99C155.111 210.939 156.945 212.683 156.999 214.891Z" fill="white"/>
<path fill-rule="evenodd" clip-rule="evenodd" d="M157.998 213.355C158.072 216.392 155.669 218.914 152.633 218.988C149.597 219.061 147.075 216.658 147.002 213.621C146.928 210.584 149.331 208.062 152.367 207.991C155.403 207.917 157.925 210.32 157.998 213.355Z" fill="white"/>
<path fill-rule="evenodd" clip-rule="evenodd" d="M22.297 148.403C22.297 148.403 13.8809 156.468 12 186.989L44.5698 183.392C44.5698 183.392 49.9973 131.409 22.297 148.403Z" fill="#D1C4B2"/>
<path fill-rule="evenodd" clip-rule="evenodd" d="M262 57.562C262 57.562 273.593 84.3401 276.825 82.9359C280.059 81.534 310 62.4273 310 62.4273C310 62.4273 297.728 38.4531 295.175 37.0534C292.621 35.6559 262 57.562 262 57.562Z" fill="#E4B1ED"/>
<path fill-rule="evenodd" clip-rule="evenodd" d="M294.984 38.9901C295.129 39.0412 294.281 41.5487 292.792 45.5566C291.304 49.5665 289.173 55.0789 286.757 61.1439C286.697 61.2933 286.636 61.4427 286.582 61.5819L286.419 61.9893L285.962 61.9197C279.294 60.8942 273.292 59.9116 268.962 59.1502C264.632 58.3887 261.974 57.8483 262 57.7051C262.024 57.5618 264.726 57.8422 269.088 58.4133C273.451 58.9864 279.474 59.8482 286.144 60.8675L285.526 61.2073C285.58 61.0681 285.639 60.9187 285.699 60.7693C288.117 54.7043 290.365 49.2329 292.046 45.2925C293.726 41.3502 294.839 38.9389 294.984 38.9901Z" fill="#002C68"/>
<path fill-rule="evenodd" clip-rule="evenodd" d="M273.068 79.9885C272.718 79.9238 273.75 75.8294 275.373 70.8477C276.999 65.8639 278.592 61.899 278.934 61.9908C279.277 62.0827 278.245 66.1771 276.629 71.1337C275.014 76.0883 273.418 80.0532 273.068 79.9885Z" fill="#002C68"/>
<path fill-rule="evenodd" clip-rule="evenodd" d="M308 56.9228C307.95 57.1202 303.656 56.863 298.409 56.3459C293.162 55.8315 288.951 55.2531 289 55.0557C289.052 54.8583 293.344 55.1155 298.593 55.6313C303.838 56.1471 308.049 56.7254 308 56.9228Z" fill="#002C68"/>
<path fill-rule="evenodd" clip-rule="evenodd" d="M39.5264 85.3974L40.255 95.2712C40.255 95.2712 32.0884 96.4046 34.418 104.062C36.7455 111.72 42.331 108.368 42.331 108.368C42.331 108.368 43.7279 127.992 63.2824 121.771C78.8438 116.819 77.8918 96.1019 75.9168 78.4401C75.1517 71.5976 68.8549 66.8938 62.2787 68.2106L50.5233 70.5658C43.73 71.9246 39.002 78.3009 39.5264 85.3974Z" fill="#FFAFA7"/>
<path fill-rule="evenodd" clip-rule="evenodd" d="M40 101.989L45.3427 131.371C46.5455 137.992 52.8731 142.227 59.2247 140.665C65.11 139.215 68.8795 133.284 67.8227 127.139L64.9226 110.298L40 101.989Z" fill="#FFAFA7"/>
<path fill-rule="evenodd" clip-rule="evenodd" d="M62.021 103.201C62.0775 103.147 62.1972 103.452 62.4655 103.493C62.7274 103.53 63.1266 103.166 63.2236 102.399C63.3578 101.638 63.2834 100.636 63.2026 99.4775C63.1331 98.232 63.0652 96.9996 62.9941 95.7109C62.7435 90.3615 62.7274 86.0088 62.9601 85.9893C63.1929 85.9699 63.5841 90.2901 63.8347 95.6395C63.8832 96.9325 63.93 98.165 63.9769 99.4126C64.0109 100.556 64.0432 101.687 63.7943 102.624C63.6003 103.601 62.8486 104.206 62.3798 103.917C61.9304 103.612 61.9903 103.194 62.021 103.201Z" fill="#241352"/>
<path fill-rule="evenodd" clip-rule="evenodd" d="M67.9931 118.019C68.083 118.155 67.2896 119.283 65.6501 120.499C64.0282 121.712 61.4945 122.908 58.5772 122.985C55.66 123.067 53.0868 122.012 51.4276 120.887C49.7509 119.761 48.9224 118.678 49.0057 118.537C49.1526 118.127 53.0408 121.687 58.5531 121.511C64.0655 121.387 67.8353 117.618 67.9931 118.019Z" fill="#241352"/>
<path fill-rule="evenodd" clip-rule="evenodd" d="M63.9763 107.727C64.084 107.812 63.8368 108.486 62.9852 109.138C62.1631 109.782 60.65 110.307 59.0609 109.761C57.478 109.198 56.5292 107.809 56.2059 106.764C55.8635 105.694 56.022 104.987 56.1551 104.99C56.3221 104.973 56.4531 105.597 56.9096 106.403C57.3512 107.202 58.2008 108.196 59.3969 108.622C60.5972 109.036 61.8186 108.769 62.6069 108.399C63.4078 108.033 63.8495 107.609 63.9763 107.727Z" fill="#241352"/>
<path fill-rule="evenodd" clip-rule="evenodd" d="M39.9741 104.728C39.9757 104.882 39.6141 105.151 38.9736 104.859C38.6671 104.71 38.2618 104.284 38.0883 103.546C38.0007 103.186 37.9618 102.745 38.0494 102.284C38.1191 101.833 38.3964 101.346 38.7028 101.19C39.1212 100.925 39.7065 101.082 39.9773 101.797L39.2606 102.377C38.792 100.532 38.565 99.1185 38.7401 98.9976C38.9136 98.8766 39.4357 100.089 40 101.868L39.2833 102.447C39.2671 102.41 39.1487 102.329 39.0028 102.417C38.8455 102.49 38.7742 102.783 38.8277 103.168C38.8796 103.536 39.0368 103.811 39.2282 104.02C39.6157 104.418 39.9838 104.534 39.9741 104.728Z" fill="#241352"/>
<path fill-rule="evenodd" clip-rule="evenodd" d="M69.3232 89.9859C69.0432 90.0306 68.6712 89.6193 68.4912 89.0687C68.3132 88.5181 68.3972 88.0372 68.6772 87.9926C68.9572 87.948 69.3292 88.3592 69.5072 88.9098C69.6872 89.4604 69.6032 89.9413 69.3232 89.9859Z" fill="#241352"/>
<path fill-rule="evenodd" clip-rule="evenodd" d="M51.3976 90.9844C51.1196 91.0386 50.7176 90.6355 50.4976 90.0865C50.2776 89.536 50.3256 89.0481 50.6036 88.9939C50.8796 88.9411 51.2816 89.3428 51.5016 89.8932C51.7216 90.4423 51.6756 90.9302 51.3976 90.9844Z" fill="#241352"/>
<path fill-rule="evenodd" clip-rule="evenodd" d="M53.9911 86.774C53.8962 87.056 53.0125 87.046 52.0339 87.3C51.0467 87.524 50.2815 87.936 50.0508 87.732C49.8116 87.56 50.4237 86.612 51.7494 86.292C53.0707 85.966 54.1075 86.514 53.9911 86.774Z" fill="#241352"/>
<path fill-rule="evenodd" clip-rule="evenodd" d="M69.9886 82.1623C69.878 82.4343 69.0174 82.3003 68.0099 82.4043C67.0005 82.4843 66.1743 82.7743 66.0216 82.5263C65.8575 82.3043 66.6399 81.4823 67.924 81.3683C69.2082 81.2463 70.1127 81.9143 69.9886 82.1623Z" fill="#241352"/>
<path fill-rule="evenodd" clip-rule="evenodd" d="M39.2095 95.4629C44.635 90.01 46.2284 80.9255 47.7001 73.2637C52.724 77.0363 59.634 77.9634 65.4268 75.6444C67.2445 77.8467 69.3805 79.7715 71.7408 81.3307C72.4137 81.7756 73.2083 82.2073 73.9729 81.9694C74.8829 81.6875 75.2887 80.6106 75.5044 79.6548C76.1986 76.6002 76.2243 73.3298 75.1905 70.3765C74.1566 67.4276 71.9886 64.8333 69.1498 63.7013C66.1167 62.4901 62.7034 63.0164 59.5528 63.8577C54.8087 65.1262 50.2356 67.0752 46.0063 69.6299C41.8539 72.1361 37.8681 75.455 36.1059 80.0688C34.3459 84.6848 34.3544 93.657 38.5986 95.9893" fill="#241352"/>
<path fill-rule="evenodd" clip-rule="evenodd" d="M58.5961 110.928C57.0954 110.511 56.6043 108.488 57.3309 107.105C58.0557 105.703 59.0233 104.872 59.5838 105.003C60.1369 105.175 60.7576 106.435 60.9712 108.091C61.194 109.73 60.0968 111.325 58.5961 110.928Z" fill="#241352" fill-opacity="0.2"/>
<path fill-rule="evenodd" clip-rule="evenodd" d="M51.117 102.981C48.7248 103.113 46.8819 101.582 47.0059 99.9417C47.126 98.2872 48.8626 97.1114 50.8847 96.9964C52.9068 96.8951 54.7281 97.8846 54.9762 99.5183C55.2242 101.141 53.5093 102.857 51.117 102.981Z" fill="#241352" fill-opacity="0.12"/>
<path fill-rule="evenodd" clip-rule="evenodd" d="M72.1473 101.981C69.7056 102.113 67.8538 100.582 68.0091 98.9414C68.1621 97.2891 69.8831 96.1085 71.8502 95.9957C73.8195 95.8991 75.6469 96.8886 75.9618 98.518C76.279 100.133 74.5868 101.853 72.1473 101.981Z" fill="#241352" fill-opacity="0.12"/>
<path fill-rule="evenodd" clip-rule="evenodd" d="M40.1851 119.989C39.8931 119.983 39.7311 116.852 39.5471 113.007C39.3691 109.16 39.2351 106.029 39.5251 105.99C39.8051 105.948 40.4071 109.053 40.5871 112.948C40.7731 116.843 40.4671 119.998 40.1851 119.989Z" fill="#6042DD"/>
<path fill-rule="evenodd" clip-rule="evenodd" d="M73.4629 132.19C68.3018 130.09 108 145.182 108 145.182L103.972 172.989L88.8729 167.917L73.4629 132.19Z" fill="#D1C4B2"/>
<path fill-rule="evenodd" clip-rule="evenodd" d="M47.7501 69.6577C48.9089 67.499 49.2907 64.7296 48.7745 62.2199C48.3499 60.1525 47.0859 58.102 45.3603 57.9938C44.3806 57.9313 43.4302 58.5203 42.7096 59.3448C40.9294 61.3786 40.4717 64.9604 41.6578 67.5711C42.844 70.1818 45.557 71.5688 47.8922 70.7587" fill="#241352"/>
<path fill-rule="evenodd" clip-rule="evenodd" d="M293.392 248.492C293.392 248.492 306.458 229.394 304.865 236.624C303.272 243.854 290 275.989 290 275.989L293.392 248.492Z" fill="#241352"/>
<path fill-rule="evenodd" clip-rule="evenodd" d="M99.3511 219.219C99.3511 219.219 117.244 213.483 116.629 215.37C116.015 217.255 112.971 217.325 109.927 220.368C109.927 220.368 129.928 220.588 128.966 222.273C128.005 223.955 114.985 224.38 114.906 224.666C114.829 224.954 129.147 225.312 128.826 226.868C128.502 228.427 115.197 228.046 115.197 228.046C115.197 228.046 127.531 229.387 127.278 231.065C127.025 232.745 115.654 231.535 115.654 231.535C115.654 231.535 125.172 232.646 124.923 234.166C124.773 235.093 97.0576 235.302 97 235.984C96.9695 236.341 99.3511 219.219 99.3511 219.219Z" fill="#FFAFA7"/>
<path fill-rule="evenodd" clip-rule="evenodd" d="M126.474 131.989C126.474 131.989 115.236 117.412 117.239 117.42C119.243 117.427 120.288 120.171 124.179 122.049C124.179 122.049 117.97 103.821 119.89 104.203C121.813 104.586 126.399 116.286 126.7 116.273C126.998 116.26 122.742 103.151 124.338 102.991C125.932 102.83 129.842 115.025 129.842 115.025C129.842 115.025 127.164 103.432 128.853 103.173C130.545 102.913 133.036 113.592 133.036 113.592C133.036 113.592 131.044 104.624 132.581 104.404C133.516 104.271 142 126.517 142 126.517C141.777 126.517 126.474 131.989 126.474 131.989Z" fill="#FFAFA7"/>
<path fill-rule="evenodd" clip-rule="evenodd" d="M27.5238 173.989C27.6275 173.978 27.9808 174.71 28 176.168C27.9962 176.875 27.7484 177.902 26.9765 178.542C26.6078 178.862 26.0586 179.09 25.4902 178.944C24.9276 178.808 24.5032 178.363 24.1979 177.976C23.5795 177.135 23.1782 176.638 22.5445 176.551C21.9377 176.439 21.3904 176.676 21.039 177.052C20.3016 177.835 20.3246 178.741 20.1749 178.732C20.075 178.804 19.6929 177.761 20.5224 176.486C20.9276 175.877 21.7437 175.381 22.6482 175.484C23.0956 175.528 23.5738 175.714 23.977 176.072C24.3707 176.419 24.651 176.837 24.9276 177.182C25.9223 178.761 27.2242 177.22 27.2953 176.083C27.4527 174.884 27.3605 174.003 27.5238 173.989Z" fill="#FCF2FC"/>
<path fill-rule="evenodd" clip-rule="evenodd" d="M36.0078 165.104C35.9385 165.004 36.3247 164.244 37.4834 163.441C38.0523 163.063 39.0158 162.767 39.9667 163.214C40.4327 163.422 40.9281 163.865 41.1359 164.529C41.3458 165.182 41.2303 165.861 41.0939 166.384C40.7706 167.47 40.6027 168.154 40.8924 168.855C41.1464 169.539 41.6481 169.974 42.1497 170.134C43.1951 170.47 43.9088 169.958 43.9865 170.12C44.1019 170.182 43.4827 171.136 41.9902 170.97C41.2723 170.882 40.4096 170.31 39.9772 169.321C39.7589 168.835 39.6371 168.242 39.6938 167.635C39.7484 167.042 39.9226 166.528 40.0401 166.058C40.7433 164.184 38.766 163.672 37.813 164.212C36.7655 164.696 36.1106 165.266 36.0078 165.104Z" fill="#FCF2FC"/>
<path fill-rule="evenodd" clip-rule="evenodd" d="M36.0078 144.104C35.9385 144.002 36.3247 143.245 37.4813 142.442C38.0502 142.064 39.0158 141.766 39.9667 142.215C40.4327 142.423 40.9281 142.866 41.1338 143.53C41.3458 144.183 41.2303 144.862 41.0939 145.385C40.7706 146.471 40.6006 147.154 40.8924 147.853C41.1464 148.539 41.6481 148.974 42.1476 149.134C43.1951 149.47 43.9088 148.958 43.9865 149.12C44.1019 149.182 43.4827 150.136 41.9881 149.97C41.2702 149.879 40.4096 149.307 39.9772 148.321C39.7589 147.835 39.6371 147.242 39.6917 146.635C39.7463 146.043 39.9226 145.528 40.0401 145.058C40.7412 143.185 38.766 142.673 37.813 143.211C36.7634 143.697 36.1106 144.266 36.0078 144.104Z" fill="#FCF2FC"/>
<path fill-rule="evenodd" clip-rule="evenodd" d="M57.5049 171.979C57.4059 172.052 56.5819 171.741 55.6299 170.702C55.1805 170.188 54.7746 169.294 55.1443 168.353C55.3134 167.894 55.7242 167.388 56.3935 167.142C57.0507 166.891 57.7659 166.951 58.324 167.041C59.4863 167.266 60.2136 167.376 60.9119 167.047C61.5981 166.752 61.9992 166.241 62.1176 165.754C62.3616 164.731 61.7575 164.091 61.917 164.005C61.9726 163.89 63.0261 164.408 62.9995 165.842C62.9802 166.532 62.4728 167.394 61.4893 167.882C61.0061 168.126 60.4044 168.287 59.7666 168.279C59.1432 168.273 58.5923 168.144 58.0921 168.068C56.0745 167.541 55.7411 169.462 56.3959 170.327C57.0048 171.289 57.662 171.869 57.5049 171.979Z" fill="#FCF2FC"/>
<path fill-rule="evenodd" clip-rule="evenodd" d="M71.9942 193.172C72.0579 193.275 71.6029 193.974 70.3389 194.662C69.7168 194.983 68.6902 195.191 67.7273 194.685C67.2547 194.447 66.7689 193.981 66.5974 193.322C66.4238 192.677 66.593 192.032 66.7733 191.539C67.1844 190.513 67.4086 189.868 67.1558 189.171C66.936 188.49 66.4435 188.03 65.9313 187.835C64.863 187.43 64.0826 187.869 64.0123 187.708C63.8957 187.636 64.6102 186.764 66.1578 187.045C66.9008 187.186 67.7603 187.804 68.1428 188.792C68.3363 189.278 68.4242 189.859 68.3231 190.441C68.2241 191.008 68.0043 191.492 67.8482 191.936C66.9843 193.685 69.0133 194.34 70.0465 193.891C71.1742 193.506 71.8975 193.009 71.9942 193.172Z" fill="#FCF2FC"/>
<path fill-rule="evenodd" clip-rule="evenodd" d="M88.9942 159.173C89.0579 159.276 88.6029 159.977 87.3389 160.663C86.7168 160.981 85.6902 161.192 84.7273 160.685C84.2547 160.448 83.7689 159.982 83.5974 159.325C83.4238 158.678 83.593 158.032 83.7733 157.539C84.1844 156.515 84.4086 155.87 84.1558 155.171C83.936 154.49 83.4435 154.03 82.9313 153.836C81.863 153.43 81.0826 153.867 81.0123 153.708C80.8957 153.636 81.6102 152.764 83.1578 153.045C83.9008 153.186 84.7603 153.804 85.1428 154.792C85.3385 155.279 85.4242 155.859 85.3231 156.441C85.2241 157.008 85.0043 157.492 84.8482 157.936C83.9843 159.688 86.0133 160.338 87.0465 159.892C88.1742 159.507 88.8975 159.009 88.9942 159.173Z" fill="#FCF2FC"/>
<path fill-rule="evenodd" clip-rule="evenodd" d="M98.9534 155.01C99.0306 154.919 99.8826 155.107 101.013 156.032C101.549 156.492 102.127 157.353 101.975 158.386C101.912 158.886 101.629 159.475 101.044 159.838C100.47 160.201 99.7773 160.254 99.2249 160.25C98.0709 160.203 97.3546 160.205 96.7601 160.657C96.1702 161.073 95.8963 161.664 95.887 162.19C95.8753 163.286 96.5869 163.851 96.4534 163.965C96.4253 164.094 95.3112 163.727 95.0279 162.238C94.9015 161.521 95.1988 160.547 96.0321 159.887C96.4394 159.555 96.9801 159.293 97.5887 159.198C98.1833 159.108 98.7357 159.152 99.2296 159.15C101.261 159.374 101.172 157.334 100.362 156.542C99.576 155.643 98.827 155.149 98.9534 155.01Z" fill="#FCF2FC"/>
<path fill-rule="evenodd" clip-rule="evenodd" d="M52.9942 211.173C53.0579 211.276 52.6029 211.975 51.3389 212.663C50.7168 212.981 49.6902 213.192 48.7274 212.685C48.2547 212.446 47.7689 211.982 47.5974 211.323C47.4238 210.678 47.593 210.032 47.7711 209.539C48.1844 208.513 48.4086 207.868 48.1558 207.171C47.936 206.49 47.4436 206.03 46.9314 205.836C45.8608 205.43 45.0804 205.869 45.0123 205.708C44.8958 205.636 45.608 204.764 47.1578 205.045C47.9008 205.186 48.7603 205.804 49.1428 206.792C49.3363 207.279 49.422 207.859 49.3231 208.441C49.2242 209.008 49.0043 209.492 48.8483 209.934C47.9843 211.686 50.0133 212.338 51.0443 211.892C52.1742 211.507 52.8975 211.009 52.9942 211.173Z" fill="#FCF2FC"/>
<path fill-rule="evenodd" clip-rule="evenodd" d="M77.9854 177.982C77.8827 178.051 77.1499 177.633 76.3965 176.434C76.0426 175.843 75.7846 174.853 76.2572 173.895C76.4787 173.429 76.933 172.937 77.5928 172.744C78.2434 172.547 78.9078 172.686 79.4192 172.84C80.4785 173.2 81.1451 173.392 81.846 173.116C82.5286 172.877 82.9761 172.378 83.1519 171.874C83.5172 170.817 83.0354 170.077 83.1975 170.002C83.266 169.887 84.1838 170.543 83.9669 172.06C83.855 172.789 83.2637 173.649 82.2752 174.062C81.7889 174.271 81.2022 174.378 80.604 174.303C80.0219 174.231 79.5196 174.036 79.063 173.903C77.2412 173.133 76.6681 175.131 77.1681 176.117C77.6087 177.199 78.1475 177.882 77.9854 177.982Z" fill="#FCF2FC"/>
<path fill-rule="evenodd" clip-rule="evenodd" d="M82.9842 194.982C82.8837 195.049 82.1486 194.634 81.3953 193.432C81.0437 192.844 80.7835 191.851 81.2583 190.895C81.4775 190.427 81.9318 189.937 82.5938 189.744C83.2444 189.548 83.9064 189.684 84.4178 189.841C85.4771 190.2 86.1459 190.392 86.8445 190.116C87.5271 189.875 87.9745 189.379 88.1503 188.874C88.5155 187.815 88.0362 187.077 88.196 187.002C88.2644 186.887 89.1821 187.541 88.9676 189.058C88.8557 189.787 88.2622 190.649 87.2737 191.062C86.7897 191.271 86.2007 191.376 85.6026 191.301C85.0205 191.229 84.5205 191.036 84.0617 190.904C82.24 190.134 81.667 192.131 82.1669 193.117C82.6075 194.2 83.1485 194.882 82.9842 194.982Z" fill="#FCF2FC"/>
<path fill-rule="evenodd" clip-rule="evenodd" d="M47.191 188.988C47.0789 188.971 46.8568 188.079 47.1329 186.494C47.2803 185.728 47.7515 184.687 48.694 184.21C49.1487 183.967 49.7735 183.875 50.3444 184.195C50.9112 184.503 51.2682 185.107 51.5111 185.614C51.9907 186.697 52.3145 187.351 52.9643 187.627C53.5829 187.92 54.2057 187.816 54.6541 187.51C55.5904 186.869 55.7503 185.882 55.908 185.935C56.0284 185.885 56.2173 187.125 55.0839 188.27C54.5337 188.814 53.5726 189.123 52.6384 188.752C52.1734 188.578 51.7083 188.24 51.3554 187.739C51.0108 187.251 50.7991 186.717 50.5769 186.265C49.8524 184.275 48.1647 185.574 47.8574 186.784C47.4484 188.039 47.3654 189.023 47.191 188.988Z" fill="#FCF2FC"/>
<path fill-rule="evenodd" clip-rule="evenodd" d="M79.192 210.988C79.0798 210.971 78.8556 210.079 79.1338 208.494C79.2792 207.728 79.7525 206.687 80.6951 206.21C81.1477 205.967 81.7747 205.875 82.3456 206.195C82.9124 206.503 83.2674 207.107 83.5124 207.614C83.992 208.697 84.3158 209.351 84.9657 209.627C85.5823 209.92 86.2072 209.816 86.6556 209.51C87.592 208.869 87.7518 207.882 87.9075 207.935C88.0279 207.885 88.2189 209.125 87.0833 210.27C86.5331 210.814 85.5719 211.123 84.6397 210.752C84.1747 210.578 83.7096 210.24 83.3567 209.739C83.012 209.251 82.8003 208.717 82.5781 208.265C81.8536 206.275 80.1636 207.574 79.8584 208.787C79.4494 210.039 79.3664 211.023 79.192 210.988Z" fill="#FCF2FC"/>
<path fill-rule="evenodd" clip-rule="evenodd" d="M79.192 143.988C79.0798 143.971 78.8556 143.077 79.1338 141.494C79.2792 140.728 79.7525 139.685 80.6951 139.21C81.1477 138.967 81.7747 138.875 82.3456 139.195C82.9124 139.501 83.2674 140.107 83.5124 140.612C83.992 141.697 84.3158 142.351 84.9657 142.627C85.5823 142.918 86.2072 142.816 86.6556 142.51C87.592 141.869 87.7518 140.882 87.9075 140.935C88.0279 140.882 88.2189 142.122 87.0833 143.268C86.5331 143.815 85.5719 144.12 84.6397 143.752C84.1747 143.576 83.7096 143.238 83.3567 142.739C83.012 142.249 82.8003 141.715 82.5781 141.265C81.8536 139.272 80.1636 140.572 79.8584 141.784C79.4494 143.039 79.3664 144.021 79.192 143.988Z" fill="#FCF2FC"/>
<path fill-rule="evenodd" clip-rule="evenodd" d="M67.7607 218.958C67.6896 219.054 66.745 218.964 65.3891 218.194C64.7416 217.809 63.9926 217.039 64.0002 216.025C63.9926 215.533 64.2084 214.932 64.7848 214.516C65.346 214.102 66.0849 213.975 66.679 213.917C67.9283 213.837 68.6977 213.755 69.2715 213.252C69.8428 212.785 70.0485 212.184 69.98 211.676C69.8276 210.614 68.977 210.144 69.1039 210.019C69.1141 209.893 70.3685 210.124 70.8966 211.534C71.1429 212.213 70.9677 213.186 70.1704 213.919C69.7819 214.283 69.2411 214.598 68.5987 214.755C67.9715 214.909 67.3697 214.928 66.8415 214.981C64.6198 214.989 65.0235 216.953 66.0138 217.628C66.9939 218.412 67.875 218.807 67.7607 218.958Z" fill="#FCF2FC"/>
<path fill-rule="evenodd" clip-rule="evenodd" d="M30.3904 152.994C30.4932 152.932 31.1521 153.447 31.7518 154.799C32.0298 155.462 32.1764 156.539 31.6292 157.513C31.3731 157.989 30.8916 158.469 30.2415 158.609C29.6002 158.753 28.9808 158.54 28.5081 158.327C27.5319 157.84 26.9146 157.57 26.2208 157.795C25.5445 157.984 25.0695 158.471 24.8506 158.991C24.3954 160.079 24.7806 160.914 24.6186 160.978C24.5442 161.095 23.7322 160.303 24.0911 158.712C24.2706 157.948 24.9207 157.09 25.9056 156.747C26.3893 156.573 26.9606 156.516 27.5231 156.656C28.0703 156.788 28.5299 157.044 28.9546 157.232C30.6158 158.227 31.3622 156.157 30.9835 155.059C30.6705 153.863 30.224 153.086 30.3904 152.994Z" fill="#FCF2FC"/>
<path fill-rule="evenodd" clip-rule="evenodd" d="M66.3904 147.994C66.4933 147.932 67.1521 148.447 67.7518 149.799C68.0298 150.462 68.1764 151.541 67.6292 152.513C67.3731 152.989 66.8916 153.469 66.2415 153.609C65.6002 153.753 64.9808 153.54 64.508 153.327C63.5319 152.84 62.9146 152.57 62.2208 152.795C61.5445 152.984 61.0695 153.471 60.8506 153.991C60.3954 155.079 60.7806 155.914 60.6186 155.978C60.5442 156.095 59.7322 155.306 60.0911 153.712C60.2706 152.948 60.9207 152.09 61.9056 151.749C62.3893 151.573 62.9606 151.516 63.5231 151.656C64.0703 151.788 64.5299 152.044 64.9546 152.232C66.6158 153.227 67.3622 151.157 66.9835 150.059C66.6705 148.863 66.224 148.086 66.3904 147.994Z" fill="#FCF2FC"/>
<path fill-rule="evenodd" clip-rule="evenodd" d="M44.0879 186.989C44.008 186.98 44.0213 186.147 44.1123 184.651C44.2033 183.153 44.372 180.989 44.6051 178.32C45.069 172.982 45.8016 165.609 46.6606 157.491C46.856 155.475 46.9558 153.514 46.685 151.684C46.4342 149.852 45.7394 148.206 44.7294 146.869C42.6917 144.17 39.7993 142.767 37.3398 142.165C34.847 141.555 32.7226 141.584 31.2754 141.625C29.8214 141.677 29.0134 141.77 28.9999 141.679C28.9868 141.609 29.7703 141.362 31.2376 141.166C32.7004 140.982 34.8758 140.817 37.5196 141.35C40.1234 141.877 43.2799 143.273 45.5685 146.202C46.7072 147.645 47.5197 149.516 47.806 151.507C48.1146 153.498 48.008 155.559 47.8105 157.607C46.9492 165.75 46.0901 173.091 45.4175 178.41C45.0801 181.069 44.7871 183.218 44.5585 184.699C44.3321 186.183 44.1678 186.998 44.0879 186.989Z" fill="#241352"/>
<path fill-rule="evenodd" clip-rule="evenodd" d="M47.0001 185.037C47.0333 185.205 39.4504 185.768 30.0611 186.293C20.6719 186.82 13.0335 187.11 13.0001 186.941C12.9669 186.774 20.5498 186.211 29.9413 185.686C39.3261 185.159 46.9667 184.868 47.0001 185.037Z" fill="#241352"/>
<path fill-rule="evenodd" clip-rule="evenodd" d="M89.7033 179.989C89.3453 179.954 91.0767 173.485 89.1004 165.777C87.2476 158.038 82.7129 153.198 83.0143 152.994C83.0981 152.906 84.3438 153.964 85.8888 156.109C87.4339 158.241 89.1695 161.543 90.1576 165.505C91.1332 169.467 91.1437 173.216 90.7794 175.844C90.4193 178.485 89.8185 180.025 89.7033 179.989Z" fill="#241352"/>
<path fill-rule="evenodd" clip-rule="evenodd" d="M176.233 180.232C176.509 178.42 176.456 176.697 177.485 175.101C179.534 171.916 182.453 172.708 185.28 174.108C188.15 175.529 190.85 176.383 193.971 175.054C198.887 172.959 201.064 165.796 196.489 162.335C195.005 161.214 193.478 163.061 193.699 164.447C194.01 166.398 194.975 168.552 193.276 170.229C191.005 172.474 188.338 170.594 186.069 169.585C183.628 168.497 181.037 168.256 178.515 169.257C174.174 170.981 171.018 176.773 174.467 180.691C174.954 181.244 176.117 180.993 176.233 180.232Z" fill="#7E2E84"/>
<path fill-rule="evenodd" clip-rule="evenodd" d="M189.009 95.5475C189.458 98.5859 192.471 104.997 195.648 105.882C197.333 106.351 198.585 105.189 199.894 104.245C202.278 102.526 204.633 100.768 206.992 99.0097C207.844 98.3762 208.349 97.1552 207.715 96.1329C205.627 92.7712 203.541 89.4096 201.454 86.0501C200.901 85.1611 199.625 84.6128 198.704 85.2965C196.097 87.2252 193.306 89.0142 190.926 91.2466C189.299 92.7756 191.377 95.3793 193.203 94.3352C195.853 92.8193 198.268 90.7529 200.734 88.929C199.815 88.6778 198.898 88.4266 197.982 88.1754C200.068 91.5349 202.155 94.8966 204.241 98.2561C204.483 97.2972 204.723 96.3361 204.963 95.3771C203.548 96.4322 202.128 97.4806 200.717 98.54C200.009 99.0708 197.114 101.836 196.345 101.655C195.433 101.441 193.961 98.6908 193.385 97.9721C192.383 96.7271 191.446 95.5497 190.151 94.6279C189.529 94.1823 188.917 94.9163 189.009 95.5475Z" fill="#FBC580"/>
<path fill-rule="evenodd" clip-rule="evenodd" d="M159.435 126.916C155.918 130.071 154.579 134.982 157.935 138.771C161.092 142.34 167.208 143.096 171.153 140.253C180.681 133.387 170.75 120.719 160.47 123.341C158.567 123.826 159.041 126.36 160.922 126.46C163.927 126.619 167.145 126.728 169.545 128.693C172.125 130.807 172.181 134.38 170.067 136.81C164.462 143.243 154.729 133.77 160.615 128.018C161.357 127.293 160.212 126.22 159.435 126.916Z" fill="#7CABFF"/>
<path fill-rule="evenodd" clip-rule="evenodd" d="M237.03 156.689C235.897 162.984 234.931 169.292 234.03 175.629C233.814 177.152 234.795 178.181 236.208 177.959C241.771 177.094 247.318 176.295 252.808 174.998C253.864 174.747 254.292 173.356 253.791 172.41C250.68 166.552 246.718 158.389 240.864 155.193C239.382 154.383 237.283 156.135 238.391 157.839C240.132 160.521 242.71 162.532 244.738 164.988C247.073 167.818 249.266 170.862 250.949 174.188C251.422 173.304 251.897 172.421 252.369 171.54C246.62 172.146 240.96 173.253 235.267 174.307C236.016 174.915 236.762 175.523 237.509 176.134C238.194 169.764 238.807 163.404 239.252 157.012C239.348 155.663 237.272 155.345 237.03 156.689Z" fill="#FF7081"/>
<path fill-rule="evenodd" clip-rule="evenodd" d="M209.753 145.164C211.368 139.2 212.676 132.783 212.998 126.676C213.098 124.77 209.338 124.294 208.906 126.217C207.545 132.264 207.055 138.719 207 144.857C206.99 146.135 209.401 146.458 209.753 145.164Z" fill="#FF957E"/>
<path fill-rule="evenodd" clip-rule="evenodd" d="M276.792 144.367C282.547 145.455 288.619 146.214 294.429 145.929C296.563 145.826 296.483 141.82 294.429 141.533C288.758 140.735 282.767 140.907 277.083 141.461C275.942 141.571 275.489 144.121 276.792 144.367Z" fill="#FBC580"/>
<path fill-rule="evenodd" clip-rule="evenodd" d="M227.542 67.9672C232.693 70.6184 238.339 73.2022 243.92 74.9162C245.679 75.4571 246.873 72.8436 245.191 72.0391C239.942 69.5266 234.028 67.5888 228.397 66.0314C227.201 65.7024 226.422 67.3906 227.542 67.9672Z" fill="#FF7081"/>
<path fill-rule="evenodd" clip-rule="evenodd" d="M244.883 116.392C244.768 116.291 244.653 116.191 244.538 116.088C243.031 114.755 240.557 114.497 239.091 116.088C237.609 117.699 237.664 119.91 239.091 121.523C239.192 121.635 239.293 121.75 239.396 121.865C240.744 123.387 243.525 123.341 244.883 121.865C246.234 120.398 246.505 117.825 244.883 116.392Z" fill="#241352"/>
<path fill-rule="evenodd" clip-rule="evenodd" d="M109.617 5.5818C103.532 7.68083 98.4963 12.8629 96.2927 19.1955C94.0892 25.5303 94.7408 32.878 97.9565 38.7109C104.145 49.9412 120.036 53.5573 130.076 46.0208C140.115 38.4843 142.055 21.4811 133.998 11.6523C125.938 1.82577 109.687 1.37265 101.147 10.7394" fill="#59999D"/>
</svg>
