<svg width="283" height="314" viewBox="0 0 283 314" fill="none" xmlns="http://www.w3.org/2000/svg">
<path fill-rule="evenodd" clip-rule="evenodd" d="M107.256 140.919C103.921 144.074 102.654 148.985 105.832 152.774C108.825 156.343 114.619 157.1 118.356 154.254C127.38 147.39 117.975 134.722 108.236 137.344C106.43 137.829 106.882 140.363 108.662 140.463C111.511 140.622 114.557 140.731 116.833 142.696C119.277 144.81 119.33 148.383 117.325 150.813C112.018 157.246 102.797 147.773 108.371 142.021C109.076 141.296 107.992 140.223 107.256 140.919Z" fill="#7CABFF"/>
<path fill-rule="evenodd" clip-rule="evenodd" d="M201.028 152.307C202.22 156.866 203.529 161.376 204.889 165.884C205.218 166.969 206.213 167.308 207.115 166.675C210.664 164.185 214.218 161.738 217.579 158.982C218.226 158.452 218.085 157.384 217.445 156.93C213.508 154.14 208.189 150.022 203.192 149.992C201.922 149.986 201.033 151.832 202.321 152.599C204.34 153.799 206.754 154.227 208.907 155.152C211.395 156.218 213.857 157.469 216.049 159.089C216.101 158.341 216.148 157.591 216.198 156.843C212.438 159.234 208.901 161.911 205.325 164.58C206.029 164.724 206.733 164.872 207.437 165.016C205.911 160.564 204.346 156.141 202.655 151.753C202.298 150.828 200.774 151.335 201.028 152.307Z" fill="#FF7081"/>
<path fill-rule="evenodd" clip-rule="evenodd" d="M226.412 174.883C231.83 172.335 237.374 169.407 242.255 165.969C244.046 164.706 242.281 162.242 240.392 163.214C235.174 165.896 230.088 169.363 225.433 172.899C224.501 173.609 225.187 175.459 226.412 174.883Z" fill="#FBC580"/>
<path fill-rule="evenodd" clip-rule="evenodd" d="M25.9774 192.902C24.8478 187.266 23.3776 181.416 21.2348 176.054C20.4479 174.083 17.5753 175.106 18.0533 177.093C19.367 182.581 21.4844 188.139 23.7796 193.317C24.2407 194.357 26.2334 194.178 25.9774 192.902Z" fill="#FF957E"/>
<path fill-rule="evenodd" clip-rule="evenodd" d="M43.8819 139.394L43.5389 139.092C42.0309 137.759 39.5583 137.498 38.0908 139.092C36.6091 140.703 36.6639 142.916 38.0908 144.527C38.1933 144.641 38.2933 144.753 38.3934 144.869C39.7441 146.388 42.5241 146.345 43.8819 144.869C45.2326 143.401 45.5065 140.827 43.8819 139.394Z" fill="#241352"/>
<path fill-rule="evenodd" clip-rule="evenodd" d="M187.002 293.182C187.002 293.182 129.925 306.413 107 283.565L115.203 228.994C117.696 213.306 116.21 183.126 128.264 172.419C130.596 170.346 132.842 169.315 132.842 169.315C141.298 165.246 156.341 163.048 170.787 162.992C188.334 162.925 206.394 176.148 211 193.02L192.008 237.291L187.002 293.182Z" fill="#7CABFF"/>
<path fill-rule="evenodd" clip-rule="evenodd" d="M182.335 199.775C182.335 199.775 207.935 248.741 195.226 251.348C153.404 259.927 129.132 266.961 129.132 266.961L127 283.085C127.623 285.523 211.607 283.417 221.555 272.212C228.578 264.301 237.916 246.02 218.051 206.453L212.016 192.992L182.335 199.775Z" fill="#FFAFA7"/>
<path fill-rule="evenodd" clip-rule="evenodd" d="M135 172.899L71.1659 197.342L69.1682 164.22L55.5018 158.992C55.5018 158.992 35.6848 212.156 60.4683 222.054C85.2519 231.954 113.177 213.662 113.177 213.662L135 172.899Z" fill="#FFAFA7"/>
<path fill-rule="evenodd" clip-rule="evenodd" d="M142 165.992C120.03 173.045 106.928 181.309 76 194.307L91.8821 229.992L119.255 221.137L142 165.992Z" fill="#7CABFF"/>
<path fill-rule="evenodd" clip-rule="evenodd" d="M179.006 192.399L194.978 229.992L231 223.329L206.732 180.992L178 192.399" fill="#7CABFF"/>
<path fill-rule="evenodd" clip-rule="evenodd" d="M159.435 217.725C167.16 217.319 174.79 217.635 182.509 217.731C183.184 217.741 183.143 216.839 182.509 216.767C174.902 215.907 167.048 216.251 159.435 216.869C158.861 216.917 158.849 217.757 159.435 217.725Z" fill="#002C68"/>
<path fill-rule="evenodd" clip-rule="evenodd" d="M193.684 173.994C167.713 176.36 185.477 215.008 192.133 226.707C192.501 227.36 193.497 226.775 193.131 226.119C186.515 214.298 168.812 178.332 193.769 174.633C194.127 174.58 194.047 173.96 193.684 173.994Z" fill="#002C68"/>
<path fill-rule="evenodd" clip-rule="evenodd" d="M121.326 196.236C118.03 209.03 115.817 222.335 115.001 235.51C114.966 236.054 115.912 236.192 115.993 235.641C117.909 222.542 119.836 209.48 121.995 196.413C122.064 195.997 121.437 195.805 121.326 196.236Z" fill="#002C68"/>
<path fill-rule="evenodd" clip-rule="evenodd" d="M183.297 124.992C183.698 119.442 184.104 113.892 184.506 108.341C188.881 107.112 191.157 101.532 189.409 97.3475C187.664 93.163 182.707 90.813 178.205 91.4543C181.045 89.5261 180.829 84.9218 178.498 82.4056C176.167 79.8893 172.516 79.0733 169.082 78.9412C165.649 78.8091 162.175 79.2246 158.797 78.6003C155.806 78.0442 152.875 76.6785 149.856 77.0578C146.837 77.4391 143.951 80.8268 145.579 83.3899C141.225 82.7529 136.514 82.1733 132.644 84.2677C128.775 86.3621 126.833 92.3214 130.157 95.1978C127.961 96.3142 127.412 99.4845 128.647 101.613C129.882 103.739 132.411 104.858 134.868 105.035C137.328 105.209 139.767 104.589 142.154 103.974" fill="#241352"/>
<path fill-rule="evenodd" clip-rule="evenodd" d="M182.445 114.249L181.58 125.74C181.58 125.74 191.264 127.057 188.506 135.967C185.743 144.878 179.119 140.98 179.119 140.98C179.119 140.98 177.461 163.814 154.271 156.574C135.814 150.811 136.942 126.705 139.285 106.154C140.194 98.1923 147.66 92.7176 155.459 94.2497L169.401 96.9891C177.461 98.5721 183.067 105.993 182.445 114.249Z" fill="#FFAFA7"/>
<path fill-rule="evenodd" clip-rule="evenodd" d="M181 135.992L174.705 169.142C173.285 176.61 165.83 181.388 158.343 179.626C151.406 177.991 146.963 171.3 148.209 164.366L151.626 145.367L181 135.992Z" fill="#FFAFA7"/>
<path fill-rule="evenodd" clip-rule="evenodd" d="M154.978 136.081C155.015 136.068 155.084 136.567 154.41 136.912C153.711 137.24 152.589 136.525 152.301 135.351C151.927 134.221 151.983 132.852 152.044 131.446C152.118 129.95 152.195 128.426 152.274 126.825C152.666 120.271 153.219 114.975 153.52 114.992C153.815 115.014 153.742 120.341 153.354 126.897C153.242 128.493 153.139 130.02 153.035 131.513C152.917 132.933 152.807 134.17 153.033 135.124C153.197 136.086 153.864 136.558 154.298 136.486C154.742 136.407 154.904 136.02 154.978 136.081Z" fill="#241352"/>
<path fill-rule="evenodd" clip-rule="evenodd" d="M147.005 154.007C147.113 153.881 148.247 154.57 150.243 155.348C152.221 156.13 155.134 156.929 158.433 156.988C161.737 157.049 164.683 156.36 166.698 155.651C168.729 154.948 169.895 154.301 169.995 154.432C170.079 154.526 169.06 155.394 167.029 156.299C165.02 157.203 161.921 158.054 158.409 157.989C154.9 157.925 151.846 156.959 149.879 155.982C147.895 155.002 146.92 154.098 147.005 154.007Z" fill="#241352"/>
<path fill-rule="evenodd" clip-rule="evenodd" d="M152.021 140.786C152.154 140.684 152.687 141.139 153.703 141.537C154.694 141.94 156.263 142.237 157.813 141.801C159.362 141.355 160.441 140.306 160.983 139.468C161.544 138.621 161.676 137.977 161.854 137.992C161.988 137.991 162.156 138.702 161.713 139.772C161.294 140.816 160.11 142.198 158.164 142.762C156.208 143.307 154.337 142.793 153.308 142.161C152.242 141.521 151.909 140.854 152.021 140.786Z" fill="#241352"/>
<path fill-rule="evenodd" clip-rule="evenodd" d="M182 136.786C181.986 136.62 182.566 136.538 183.209 136.143C183.53 135.939 183.808 135.649 183.91 135.244C184.013 134.83 183.895 134.445 183.572 134.342C183.306 134.239 183.053 134.326 182.994 134.422L182.059 133.941C182.935 132.141 183.718 130.897 183.948 130.998C184.174 131.099 183.777 132.511 183.024 134.366L182.091 133.882C182.483 133.218 183.342 133.067 183.963 133.319C184.418 133.468 184.819 133.922 184.927 134.351C185.055 134.788 185.001 135.21 184.87 135.559C184.614 136.271 184.009 136.689 183.543 136.842C182.568 137.149 181.996 136.91 182 136.786Z" fill="#241352"/>
<path fill-rule="evenodd" clip-rule="evenodd" d="M164.007 114.689C163.908 114.431 164.936 113.825 166.235 114.211C167.535 114.589 168.162 115.681 167.964 115.853C167.771 116.057 167.019 115.503 165.997 115.219C164.986 114.905 164.083 114.973 164.007 114.689Z" fill="#241352"/>
<path fill-rule="evenodd" clip-rule="evenodd" d="M143.01 110.169C142.882 109.921 144.01 109.169 145.588 109.315C147.167 109.449 148.149 110.389 147.981 110.609C147.822 110.859 146.794 110.453 145.5 110.353C144.205 110.223 143.124 110.443 143.01 110.169Z" fill="#241352"/>
<path fill-rule="evenodd" clip-rule="evenodd" d="M180.968 126.371C174.485 119.926 172.58 109.189 170.821 100.137C164.818 104.594 156.558 105.69 149.636 102.949C147.462 105.552 144.91 107.825 142.089 109.671C141.286 110.195 140.334 110.706 139.422 110.425C138.334 110.09 137.85 108.818 137.591 107.69C136.762 104.079 136.733 100.212 137.968 96.7251C139.204 93.2363 141.792 90.1728 145.186 88.8344C148.811 87.4015 152.892 88.0245 156.655 89.0192C162.325 90.5187 167.791 92.8217 172.848 95.84C177.808 98.8025 182.574 102.723 184.677 108.18C186.782 113.634 186.773 124.234 181.699 126.992" fill="#241352"/>
<path fill-rule="evenodd" clip-rule="evenodd" d="M165.882 122.992C165.594 122.974 165.416 122.286 165.48 121.458C165.546 120.63 165.832 119.975 166.118 119.993C166.406 120.011 166.586 120.698 166.518 121.526C166.454 122.353 166.168 123.01 165.882 122.992Z" fill="#241352"/>
<path fill-rule="evenodd" clip-rule="evenodd" d="M146.881 120.992C146.593 120.974 146.415 120.286 146.481 119.458C146.545 118.63 146.831 117.975 147.117 117.993C147.405 118.011 147.585 118.698 147.519 119.526C147.453 120.353 147.169 121.01 146.881 120.992Z" fill="#241352"/>
<path fill-rule="evenodd" clip-rule="evenodd" d="M54 160.523C54 160.523 56.8263 143.059 60.2047 143.247C63.5831 143.435 70.3356 143.247 70.3356 143.247C70.3356 143.247 70.9005 126.634 72.7776 129.277C74.6526 131.92 75.2429 154.27 68.0062 164.992L54 160.523Z" fill="#FFAFA7"/>
<path fill-rule="evenodd" clip-rule="evenodd" d="M129 266.992C129 266.992 99.4279 272.255 100.008 276.157C100.585 280.058 102.662 283.992 102.662 283.992L129 283.362V266.992Z" fill="#FFAFA7"/>
<path fill-rule="evenodd" clip-rule="evenodd" d="M162 284.684L161.771 280.508L99.3903 276.71L78.4687 220.992L10 224.739L33.3595 284.992L162 284.684Z" fill="#ABA7B5"/>
<path fill-rule="evenodd" clip-rule="evenodd" d="M48.0076 251.266C48.1603 254.023 50.5178 256.135 53.277 255.985C56.034 255.832 58.1468 253.475 57.992 250.716C57.8414 247.96 55.4839 245.847 52.7268 246C49.9677 246.153 47.857 248.51 48.0076 251.266Z" fill="white"/>
<path fill-rule="evenodd" clip-rule="evenodd" d="M46.0109 251.377C46.2242 255.238 49.5264 258.195 53.3849 257.981C57.2455 257.77 60.2006 254.468 59.9893 250.607C59.7781 246.747 56.4759 243.79 52.6153 244.003C48.7547 244.214 45.7975 247.516 46.0109 251.377Z" fill="white"/>
<mask id="mask0" mask-type="alpha" maskUnits="userSpaceOnUse" x="0" y="282" width="283" height="32">
<path d="M0 282.927H282.979V313.992H0V282.927Z" fill="white"/>
</mask>
<g mask="url(#mask0)">
<path fill-rule="evenodd" clip-rule="evenodd" d="M-0.000732422 286.18L267.325 282.927L282.979 290.941C282.979 290.941 77.762 345.848 -0.000732422 286.18Z" fill="#59999D"/>
</g>
<path fill-rule="evenodd" clip-rule="evenodd" d="M158.032 25.0493C158.032 25.0493 144.454 25.7246 144 40.1211C144 40.1211 144.228 47.9936 148.528 50.9169C152.827 53.8403 152.6 56.9922 152.6 56.9922H163.914C163.914 56.9922 163.463 52.9427 165.273 50.6925C167.083 48.4424 171.609 43.7197 170.932 36.7469C170.252 29.772 165.045 24.374 158.032 25.0493Z" fill="#FFBC7A"/>
<path fill-rule="evenodd" clip-rule="evenodd" d="M152.458 60.6644C156.455 60.4844 160.499 60.9104 164.471 60.6864C165.043 60.6524 165.239 59.7864 164.613 59.6604C160.752 58.8844 156.339 59.3144 152.458 59.7384C151.863 59.8024 151.832 60.6924 152.458 60.6644Z" fill="#6F35A5"/>
<path fill-rule="evenodd" clip-rule="evenodd" d="M154.486 64.6806C156.141 64.5906 157.808 64.5266 159.467 64.5426C161.118 64.5586 162.81 64.8146 164.451 64.7026C165.054 64.6606 165.24 63.8326 164.6 63.6766C161.424 62.9006 157.562 63.3486 154.353 63.7706C153.804 63.8446 153.932 64.7106 154.486 64.6806Z" fill="#6F35A5"/>
<path fill-rule="evenodd" clip-rule="evenodd" d="M155.435 66.2631C156.758 66.3571 158.124 66.7411 159.442 66.7131C160.094 66.6971 160.213 65.7531 159.593 65.5531C158.313 65.1391 156.762 65.2831 155.435 65.3371C154.851 65.3611 154.859 66.2211 155.435 66.2631Z" fill="#6F35A5"/>
<path fill-rule="evenodd" clip-rule="evenodd" d="M156.111 56.3435C156.437 52.2696 155.025 47.762 154.309 43.7643C153.897 43.9335 153.488 44.1006 153.077 44.2698C153.671 45.2153 154.655 47.944 156.167 47.8467C157.73 47.7451 158.311 45.0355 158.529 43.9314H157.182C157.484 45.1899 157.521 48.2253 159.554 47.9376C161.276 47.6944 162.436 45.2111 162.962 43.8489C162.499 43.7241 162.031 43.5993 161.563 43.4745C160.523 47.4596 160.024 52.5044 161.064 56.5191C161.252 57.2425 162.431 57.0987 162.409 56.3435C162.281 52.1215 161.674 47.9884 162.962 43.8489C163.241 42.9605 161.896 42.6453 161.563 43.4745C161.371 43.9441 160.259 46.6177 159.206 46.2729C158.94 46.1862 158.59 43.8023 158.529 43.5718C158.374 42.9478 157.306 42.8991 157.182 43.5718C157.029 44.3904 156.679 46.6198 155.686 45.9535C155.112 45.5686 154.605 44.1958 154.241 43.6077C153.826 42.9351 152.896 43.411 153.009 44.1133C153.66 48.1111 153.839 52.7688 155.491 56.5085C155.634 56.83 156.089 56.627 156.111 56.3435Z" fill="#6F35A5"/>
<path fill-rule="evenodd" clip-rule="evenodd" d="M115.625 51.9695C121.969 50.253 128.516 48.7737 134.71 46.6968C135.205 46.5305 135.024 45.8918 134.486 46.0057C128.029 47.3692 121.69 49.4013 115.353 51.1346C114.733 51.3046 114.997 52.1395 115.625 51.9695Z" fill="#FFBC7A"/>
<path fill-rule="evenodd" clip-rule="evenodd" d="M123.544 33.6847C127.485 33.6107 131.586 33.8187 135.496 33.3567C136.153 33.2787 136.183 32.4387 135.496 32.3927C131.566 32.1187 127.482 32.5267 123.544 32.6447C122.822 32.6667 122.815 33.6987 123.544 33.6847Z" fill="#FFBC7A"/>
<path fill-rule="evenodd" clip-rule="evenodd" d="M141.81 27.0371C137.396 23.1141 133.182 18.2187 128.153 15.1142C127.365 14.6279 126.632 15.7082 127.204 16.3705C131.061 20.8303 136.473 24.1438 141.01 27.8534C141.569 28.311 142.369 27.5321 141.81 27.0371Z" fill="#FFBC7A"/>
<path fill-rule="evenodd" clip-rule="evenodd" d="M151.999 21.7008C152.041 20.3965 151.1 19.1422 150.511 18.0564C149.815 16.7726 149.213 15.2838 148.255 14.2094C147.77 13.6676 146.791 14.2208 147.04 14.9742C147.504 16.3787 148.46 17.6262 149.218 18.8713C149.857 19.9321 150.477 21.414 151.581 21.9581C151.773 22.0537 151.99 21.9421 151.999 21.7008Z" fill="#FFBC7A"/>
<mask id="mask1" mask-type="alpha" maskUnits="userSpaceOnUse" x="158" y="0" width="3" height="20">
<path d="M158.761 0H160.761V19.8844H158.761V0Z" fill="white"/>
</mask>
<g mask="url(#mask1)">
<path fill-rule="evenodd" clip-rule="evenodd" d="M160.532 19.2855C160.702 13.1911 160.91 6.74519 160.27 0.683924C160.174 -0.21355 159.05 -0.242287 158.986 0.683924C158.566 6.7695 159.014 13.1999 159.408 19.2855C159.458 20.0769 160.51 20.0923 160.532 19.2855Z" fill="#FFBC7A"/>
</g>
<path fill-rule="evenodd" clip-rule="evenodd" d="M166.948 21.7411C168.366 19.5817 169.842 17.4159 170.919 15.0488C171.301 14.2138 170.243 13.5738 169.73 14.3261C168.272 16.4644 167.179 18.8633 166.062 21.2049C165.772 21.8195 166.575 22.309 166.948 21.7411Z" fill="#FFBC7A"/>
<path fill-rule="evenodd" clip-rule="evenodd" d="M173.588 25.9521C176.433 24.7594 179.112 23.2091 181.819 21.7373C184.491 20.2862 187.484 19.0232 189.812 17.0554C190.286 16.6523 189.781 15.8317 189.206 16.0198C186.481 16.9045 184.016 18.6429 181.536 20.0568C178.73 21.6588 175.841 23.178 173.208 25.057C172.797 25.3505 173.033 26.1836 173.588 25.9521Z" fill="#FFBC7A"/>
<path fill-rule="evenodd" clip-rule="evenodd" d="M175.445 34.6612C177.82 35.4132 181.902 34.8582 183.745 33.2566C184.387 32.6995 183.703 31.8817 182.94 32.0046C181.673 32.2037 180.504 32.8096 179.242 33.0765C177.986 33.3414 176.701 33.3371 175.445 33.5701C174.797 33.6909 174.909 34.4896 175.445 34.6612Z" fill="#FFBC7A"/>
<path fill-rule="evenodd" clip-rule="evenodd" d="M177.484 45.1642C185.563 46.9718 193.9 49.0381 202.165 49.9856C203.163 50.0992 203.298 48.7012 202.398 48.461C194.479 46.3537 185.977 45.261 177.842 44.0026C177.006 43.8742 176.629 44.9725 177.484 45.1642Z" fill="#FFBC7A"/>
<path fill-rule="evenodd" clip-rule="evenodd" d="M60.2287 188.235C60.5051 186.424 60.4515 184.7 61.4801 183.104C63.5308 179.922 66.4407 180.723 69.2585 182.121C72.1298 183.547 74.8319 184.401 77.954 183.07C82.8289 180.989 85.1152 173.741 80.4653 170.332C78.9589 169.227 77.4761 171.05 77.6775 172.447C77.9583 174.396 78.9397 176.54 77.2447 178.218C74.9798 180.459 72.3227 178.577 70.062 177.571C67.6192 176.485 65.0243 176.247 62.5043 177.25C58.1673 178.98 55.0217 184.779 58.4673 188.693C58.9516 189.246 60.1108 188.997 60.2287 188.235Z" fill="#7E2E84"/>
<path fill-rule="evenodd" clip-rule="evenodd" d="M103.89 243.663C109.976 244.021 116.373 244.165 122.45 243.69C124.683 243.515 124.407 241.103 122.241 241.037C116.257 240.851 109.986 241.266 104.056 241.895C102.867 242.022 102.511 243.581 103.89 243.663Z" fill="#7E2E84"/>
<path fill-rule="evenodd" clip-rule="evenodd" d="M209.154 87.4039C208.344 88.9865 210.994 129.871 210.994 129.871L230.992 128.198L228.66 138.992L238.432 127.897L258 125.623L256.812 85.9922L209.154 87.4039Z" fill="#A4651C"/>
<path fill-rule="evenodd" clip-rule="evenodd" d="M220 105.406L224.235 119.992L230.162 118.847L229.583 115.911L231.264 114.909L234.439 118.021L244.479 116.082L245.78 112.278L242.923 111.645L246.611 110.423L245.81 106.348L242.62 106.626L247 105.442L246.004 100.385L235.802 102.356C235.802 102.356 236.46 95.2891 233.448 92.9922L231.142 93.4389C231.142 93.4389 231.92 95.6575 231.847 97.025C231.777 98.3926 229.771 104.703 229.771 104.703L226.638 106.156L225.895 104.098L220 105.406Z" fill="white"/>
<path fill-rule="evenodd" clip-rule="evenodd" d="M14 77.9922L17.4065 118.677H92.2319L96.3729 132.992L100.742 117.294L115 116.464L108.428 80.0238L14 77.9922Z" fill="#FF7081"/>
<path fill-rule="evenodd" clip-rule="evenodd" d="M23.5976 92.8282C49.2213 91.8523 74.7541 91.9177 100.314 93.9892C101.226 94.0621 101.231 92.7889 100.314 92.7272C74.7837 91.0128 49.1684 90.3604 23.5976 91.7326C22.8061 91.7756 22.7955 92.8581 23.5976 92.8282Z" fill="white"/>
<path fill-rule="evenodd" clip-rule="evenodd" d="M25.5976 101.828C51.2199 100.852 76.7555 100.918 102.314 102.989C103.226 103.062 103.231 101.789 102.314 101.725C76.7851 100.013 51.1691 99.3605 25.5976 100.733C24.8061 100.776 24.7955 101.858 25.5976 101.828Z" fill="white"/>
<path fill-rule="evenodd" clip-rule="evenodd" d="M25.6019 108.171C42.9101 108.723 60.0183 107.535 77.3095 108.989C78.227 109.067 78.2334 107.699 77.3095 107.639C60.0374 106.529 42.8952 107.239 25.6019 106.999C24.7972 106.987 24.8015 108.145 25.6019 108.171Z" fill="white"/>
</svg>
